<?xml version="1.0" standalone="no"?>
<!DOCTYPE svg PUBLIC "-//W3C//DTD SVG 20010904//EN"
 "http://www.w3.org/TR/2001/REC-SVG-20010904/DTD/svg10.dtd">
<svg version="1.0" xmlns="http://www.w3.org/2000/svg"
 width="764.000000pt" height="764.000000pt" viewBox="0 0 764.000000 764.000000"
 preserveAspectRatio="xMidYMid meet">
<metadata>
Created by potrace 1.11, written by Peter Selinger 2001-2013
</metadata>
<g transform="translate(0.000000,764.000000) scale(0.100000,-0.100000)"
fill="#000000" stroke="none">
<path d="M3609 7586 c-2 -2 -47 -7 -99 -11 -52 -3 -108 -8 -125 -10 -16 -2
-50 -6 -75 -9 -25 -3 -54 -7 -65 -10 -11 -2 -54 -10 -95 -17 -41 -7 -77 -13
-80 -14 -3 -1 -32 -7 -65 -14 -56 -12 -99 -23 -220 -56 -52 -14 -228 -71 -255
-82 -8 -3 -17 -7 -20 -8 -3 -1 -14 -5 -25 -10 -11 -4 -54 -21 -95 -37 -139
-54 -357 -166 -568 -293 -94 -56 -314 -215 -387 -280 -13 -11 -40 -33 -61 -50
-52 -40 -338 -326 -394 -394 -25 -30 -50 -59 -55 -65 -18 -19 -109 -139 -149
-195 -21 -30 -43 -59 -48 -65 -12 -14 -101 -154 -122 -192 -9 -16 -26 -45 -38
-64 -48 -80 -144 -274 -198 -400 -104 -243 -195 -543 -235 -773 -3 -15 -7 -39
-10 -54 -3 -16 -7 -48 -11 -73 -3 -25 -7 -52 -9 -60 -5 -19 -17 -123 -19 -176
-1 -22 -5 -44 -8 -50 -6 -12 -8 -516 -1 -527 2 -4 6 -41 8 -81 2 -39 6 -85 9
-102 3 -16 8 -51 12 -79 3 -27 8 -59 10 -70 2 -10 6 -37 10 -60 4 -32 22 -121
49 -244 2 -9 13 -50 25 -91 11 -41 22 -82 24 -90 15 -61 78 -238 133 -375 40
-98 177 -370 237 -469 36 -60 66 -112 66 -116 0 -5 3 -10 8 -12 10 -4 72 -97
72 -107 0 -5 3 -11 8 -13 4 -2 36 -42 72 -90 35 -49 68 -88 72 -88 4 0 8 -5 8
-11 0 -6 9 -21 19 -33 11 -11 39 -43 63 -71 101 -118 448 -452 482 -464 6 -2
18 -11 26 -20 8 -9 37 -32 63 -51 83 -61 122 -89 134 -100 7 -5 14 -10 16 -10
2 0 44 -26 93 -58 129 -84 230 -141 389 -217 77 -36 148 -71 159 -77 10 -5 26
-11 35 -13 10 -2 37 -12 62 -23 39 -18 273 -98 354 -122 62 -18 291 -72 315
-75 14 -1 66 -9 115 -18 50 -8 115 -18 145 -22 30 -3 71 -8 90 -10 164 -20
507 -20 700 0 189 19 253 29 410 62 63 13 126 26 140 29 123 25 546 169 575
195 5 5 15 9 22 9 16 0 247 112 251 123 2 4 12 7 22 7 10 0 21 4 25 9 3 6 18
16 33 24 313 160 716 483 977 781 33 38 65 74 70 80 76 83 247 321 341 476 57
94 206 383 232 450 8 19 24 60 37 90 26 63 89 240 101 285 4 17 8 32 9 35 1 3
10 32 20 65 10 33 20 67 21 75 3 21 12 58 19 80 3 10 8 29 10 42 3 13 9 46 15
73 6 28 13 61 15 75 3 14 7 41 10 60 2 19 6 46 9 60 7 36 15 107 21 176 3 32
8 86 11 119 11 125 5 520 -10 617 -2 18 -8 65 -11 103 -4 39 -9 79 -12 90 -2
11 -6 34 -9 50 -2 17 -7 41 -10 55 -3 14 -8 43 -10 64 -3 22 -10 48 -15 58 -5
10 -8 18 -5 18 3 0 0 15 -5 33 -6 17 -12 43 -14 57 -4 28 -9 48 -17 70 -7 20
-31 102 -34 117 -4 20 -35 116 -44 138 -5 11 -16 40 -24 65 -51 155 -183 436
-282 600 -21 36 -45 77 -53 92 -8 15 -22 37 -33 47 -10 11 -18 23 -18 26 0 7
-80 127 -90 135 -3 3 -17 21 -30 40 -109 159 -350 421 -535 583 -130 113 -134
117 -143 117 -4 0 -13 9 -20 20 -7 11 -17 20 -22 20 -5 0 -21 10 -36 23 -41
36 -255 182 -304 207 -14 7 -27 16 -30 19 -3 3 -14 11 -25 17 -11 6 -47 26
-79 44 -32 17 -104 54 -160 81 -56 28 -113 57 -128 65 -16 8 -28 12 -28 8 0
-3 -6 -2 -12 4 -7 5 -42 21 -78 35 -36 14 -78 31 -95 38 -16 7 -37 13 -45 15
-8 2 -23 7 -35 13 -21 10 -107 37 -230 73 -84 24 -83 23 -170 43 -129 28 -208
43 -270 51 -22 3 -55 9 -72 14 -21 5 -33 5 -33 -1 0 -6 -5 -7 -12 -3 -11 7
-24 9 -113 20 -58 6 -541 15 -546 10z"/>
</g>
</svg>
