<svg id="Layer_1" data-name="Layer 1" xmlns="http://www.w3.org/2000/svg" viewBox="0 0 2491.09 894.03"><defs><style>.cls-1{fill:#a0d7cd;}.cls-2{fill:#2b4341;}.cls-3{opacity:0.3;}.cls-15,.cls-4{fill:#fff;}.cls-5{fill:#231f20;}.cls-6{fill:#302c26;}.cls-7{fill:#534137;}.cls-8{fill:#241b18;}.cls-9{fill:#f26322;}.cls-10{fill:#e54122;}.cls-11{fill:#92918f;}.cls-12{fill:#251c15;}.cls-13{fill:#a6a8ab;}.cls-14{fill:#3b312d;}.cls-15{font-size:72.92px;font-family:Mitura-Medium, Mitura-Medium;}.cls-16{font-size:117.48px;}</style></defs><title>DFUweb banner</title><rect class="cls-1" x="259.89" y="269.08" width="2172.39" height="368.84" rx="75.36" ry="75.36"/><path class="cls-2" d="M712.07,401.18a89.73,89.73,0,0,1-2.49,21.29,84.91,84.91,0,0,1-7.46,19.63,84,84,0,0,1-11.06,15.7,67.87,67.87,0,0,1-14.49,12.27l.22-.11a57.56,57.56,0,0,1-13.38,7,94.83,94.83,0,0,1-15.59,4.25c-4.64.67-9.46,1.18-14.43,1.55s-10.27.55-15.87.55h-55.4V318.69h55.07q8.29,0,15.92.55t14.49,1.44A73.35,73.35,0,0,1,663,324.77a76.81,76.81,0,0,1,14,7.08,79.88,79.88,0,0,1,14.32,12.66,78.25,78.25,0,0,1,11.06,16,85.19,85.19,0,0,1,7.13,19A89.13,89.13,0,0,1,712.07,401.18ZM651.8,377.85a29.5,29.5,0,0,0-12.16-14.16v.11a29.33,29.33,0,0,0-10.9-3.59,102.92,102.92,0,0,0-11.22-.61v82.72q3.42,0,6.36-.11c2-.07,3.89-.19,5.8-.33a18,18,0,0,0,5.48-1.28,30.24,30.24,0,0,0,6-3.15l-.22.11q7-4.86,10.9-14.1t3.92-22.61Q655.78,387.14,651.8,377.85Z"/><path class="cls-2" d="M709.64,483.34l54-164.65h55.07L872.3,483.34H815.57l-9.29-31.07H775q-2.76,7.74-4.87,15.54t-4.64,15.53ZM796,413.68l-5.86-24.11-7,24.11Z"/><path class="cls-2" d="M1002.24,398.64a61.39,61.39,0,0,1-7.08,7.85A76.57,76.57,0,0,1,986,413.9l53.19,69.44H973.26l-39.58-53.52v53.52H878.5V318.69h68.34q7.06,0,13.1.38a87.29,87.29,0,0,1,11.33,1.44,60.87,60.87,0,0,1,10.07,2.88A48.8,48.8,0,0,1,990.4,328a60.89,60.89,0,0,1,8.69,7.07A40.76,40.76,0,0,1,1010,354.13a49.73,49.73,0,0,1,1.5,12.66,60.52,60.52,0,0,1-2.38,17.14A52,52,0,0,1,1002.24,398.64Zm-47.11-27.09a18.73,18.73,0,0,0-1-6.64,7.66,7.66,0,0,0-3-4,24.15,24.15,0,0,0-6-1.38,74,74,0,0,0-8.13-.39h-3.2v28.53H935a52.88,52.88,0,0,0,9.57-.72A13.9,13.9,0,0,0,951,384a9.57,9.57,0,0,0,3.09-4.48A24.93,24.93,0,0,0,955.13,371.55Z"/><path class="cls-2" d="M1248.73,318.69l-40.37,164.65h-56.28L1136.37,422l-4.09,16.37q-1.65,6.86-3.43,13.71-.66,2.88-1.32,5.64c-.44,1.84-.93,3.72-1.44,5.64v-.11c-.37,1.4-.76,3-1.16,4.75s-.83,3.56-1.27,5.37-.89,3.57-1.33,5.31-.81,3.3-1.11,4.69h-56.39l-40.37-164.65h57.4l13.05,65c.51-2.14,1-4.26,1.54-6.36s1.07-4.22,1.66-6.36v.11q1.44-6.08,3.1-12.82t3.32-13.55q1.65-6.8,3.2-13.44t3-12.6h52.86l15,65.13c.22-1,.46-2.17.71-3.43s.5-2.39.72-3.43c1-4.71,2-9.38,3-14s1.91-9.24,2.88-13.88c.14-.81.33-1.62.55-2.44s.4-1.62.55-2.43q.56-2.76,1.27-6.14l1.44-6.74q.72-3.37,1.44-6.69t1.27-6Z"/><path class="cls-2" d="M1319.39,483.34h-55.62V318.69h55.62Z"/><path class="cls-2" d="M1492.12,483.34h-51.31l-41.25-76.85v76.85h-52.08V318.69h60.93l31.4,58.27V318.69s41.24-4.23,49.52,35.82C1493.16,373,1492.12,483.34,1492.12,483.34Z"/><path class="cls-2" d="M612.63,529.76h-29.4v7.68h27v19.77h-27V588.3H557V510h55.65Z"/><path class="cls-2" d="M676.79,548a28.77,28.77,0,0,1-3.36,3.73,35.46,35.46,0,0,1-4.37,3.53l25.3,33H663l-18.82-25.46V588.3H617.94V510h32.5c2.25,0,4.32.07,6.24.19a41.72,41.72,0,0,1,5.39.68,28.48,28.48,0,0,1,4.78,1.37,23.65,23.65,0,0,1,4.32,2.18,29.59,29.59,0,0,1,4.13,3.37,19.5,19.5,0,0,1,3.18,4.1,19.93,19.93,0,0,1,2,5,23.45,23.45,0,0,1,.71,6,28.82,28.82,0,0,1-1.13,8.15A24.47,24.47,0,0,1,676.79,548Zm-22.4-12.89a8.93,8.93,0,0,0-.5-3.15,3.64,3.64,0,0,0-1.45-1.9,11.39,11.39,0,0,0-2.86-.65,33.8,33.8,0,0,0-3.87-.19h-1.52V542.8h.63a25.07,25.07,0,0,0,4.55-.34,6.62,6.62,0,0,0,3.07-1.39,4.64,4.64,0,0,0,1.48-2.13A12.21,12.21,0,0,0,654.39,535.12Z"/><path class="cls-2" d="M693.31,588.3V510h56.12v19.78H719.55v6.73h27.51v19.72H719.55v12.31h29.88V588.3Z"/><path class="cls-2" d="M757.47,588.3V510h56.12v19.78H783.72v6.73h27.5v19.72h-27.5v12.31h29.87V588.3Z"/><path class="cls-2" d="M884.07,589.77a48.4,48.4,0,0,1-14.44-2A28.38,28.38,0,0,1,859.06,582a24.57,24.57,0,0,1-6.52-9.54,36.09,36.09,0,0,1-2.24-13.23V510h26.4v48.13c0,4.06.57,7.08,1.71,9a6.85,6.85,0,0,0,11.18.11q1.78-2.85,1.79-9.15V510h26.35v49.18q0,14.83-8.52,22.72T884.07,589.77Z"/><path class="cls-2" d="M997.2,588.3H972.8l-19.62-36.56V588.3H928.41V510h29l14.94,27.72V510H997.2Z"/><path class="cls-2" d="M1035.64,588.3h-26.45V510h26.45Z"/><path class="cls-2" d="M1117.11,510,1091,588.3h-25.25L1039.64,510h27.24l11.84,37.71q.9-2.73,1.68-5.39t1.63-5.49c.49-1.55,1-3.1,1.45-4.66s1-3.09,1.45-4.6.92-2.81,1.39-4.34.94-3.05,1.42-4.58.94-3,1.39-4.49.9-2.86,1.32-4.16Z"/><path class="cls-2" d="M1119.16,588.3V510h56.12v19.78h-29.87v6.73h27.5v19.72h-27.5v12.31h29.87V588.3Z"/><path class="cls-2" d="M1242.55,548a28.77,28.77,0,0,1-3.36,3.73,36.22,36.22,0,0,1-4.37,3.53l25.3,33h-31.35l-18.83-25.46V588.3H1183.7V510h32.5c2.25,0,4.32.07,6.23.19a41.88,41.88,0,0,1,5.4.68,28.75,28.75,0,0,1,4.78,1.37,23.25,23.25,0,0,1,4.31,2.18,28.47,28.47,0,0,1,4.13,3.37,19.22,19.22,0,0,1,3.19,4.1,19.93,19.93,0,0,1,2,5,23.9,23.9,0,0,1,.71,6,28.82,28.82,0,0,1-1.13,8.15A24.73,24.73,0,0,1,1242.55,548Zm-22.41-12.89a9,9,0,0,0-.49-3.15,3.69,3.69,0,0,0-1.45-1.9,11.47,11.47,0,0,0-2.87-.65,33.49,33.49,0,0,0-3.86-.19h-1.53V542.8h.63a25,25,0,0,0,4.55-.34,6.66,6.66,0,0,0,3.08-1.39,4.55,4.55,0,0,0,1.47-2.13A11.92,11.92,0,0,0,1220.14,535.12Z"/><path class="cls-2" d="M1285,589.61a64.11,64.11,0,0,1-16.12-2,72.27,72.27,0,0,1-7-2.21c-2.26-.84-4.47-1.75-6.6-2.73V560.89h8.1a40.6,40.6,0,0,0,11.3,7.31h-.05a32.58,32.58,0,0,0,5.52,1.69,25.52,25.52,0,0,0,5.1.52c.32,0,.71,0,1.19,0s1.11-.1,1.92-.21a6.77,6.77,0,0,0,2.73-.79,3.55,3.55,0,0,0,1.45-1.18,4,4,0,0,0,.6-2.39,3.28,3.28,0,0,0-1.15-2.66,7.65,7.65,0,0,0-2.74-1.45l.06.06-2.66-.66q-1.35-.35-2.76-.66h.05c-.28-.07-.59-.13-.92-.18a6.35,6.35,0,0,1-.82-.19,2,2,0,0,0-.49-.13,2.13,2.13,0,0,1-.51-.13c-1.33-.32-2.69-.67-4.07-1a32.53,32.53,0,0,1-3.5-1.16l.05,0a38.9,38.9,0,0,1-8.2-4,22.33,22.33,0,0,1-5.58-5.13,19.94,19.94,0,0,1-3.18-6.39,27.75,27.75,0,0,1-1-7.73,22,22,0,0,1,2.49-10.34,25.66,25.66,0,0,1,7.34-8.44,34.28,34.28,0,0,1,10.52-5.15,45.21,45.21,0,0,1,13.15-1.79,57.73,57.73,0,0,1,7.1.45,67.76,67.76,0,0,1,7.2,1.26q3.58.81,7,1.94t6.6,2.55V536h-8.16a39.84,39.84,0,0,0-4.78-3.65,36.86,36.86,0,0,0-4.47-2.45l0,.06a24.1,24.1,0,0,0-4.89-1.61,23.84,23.84,0,0,0-4.79-.5,17.72,17.72,0,0,0-3,.24,10.36,10.36,0,0,0-2.89,1,2.64,2.64,0,0,0-1.21,1.16,4,4,0,0,0-.47,1.95,5.69,5.69,0,0,0,.16,1.52,2.22,2.22,0,0,0,.42.9l-.11-.16a14.88,14.88,0,0,0,5.52,2.26,3.21,3.21,0,0,0,.69.16,4.8,4.8,0,0,1,.79.16c.1,0,.15,0,.13,0s0,0,.08,0a1.27,1.27,0,0,1,.42.05,1.15,1.15,0,0,1,.31.16l5.89,1.44a50.48,50.48,0,0,1,6,1.92,41.16,41.16,0,0,1,7.55,3.71,22,22,0,0,1,5.36,4.76,18.55,18.55,0,0,1,3.18,6.05,25.59,25.59,0,0,1,1,7.63q0,11.71-9.67,19.56a32.66,32.66,0,0,1-10.94,5.5A50.92,50.92,0,0,1,1285,589.61Z"/><path class="cls-2" d="M1352.32,588.3h-26.46V510h26.46Z"/><path class="cls-2" d="M1378.77,588.3V529.76H1358V510h67.75v19.78h-20.67V588.3Z"/><path class="cls-2" d="M1498.26,510,1472,555.9v32.4h-26.3l0-31.51q-2.57-4.68-5.23-9.31T1435,538c-.91-1.55-1.79-3.08-2.65-4.61s-1.75-3.07-2.66-4.65c-.81-1.33-1.59-2.71-2.36-4.13s-1.57-2.83-2.37-4.23c-.39-.63-.84-1.42-1.37-2.37s-1.08-1.92-1.66-2.92-1.13-2-1.65-2.87-1-1.66-1.26-2.26h29.55l10.63,19.83c.63-1.26,1.3-2.58,2-3.94s1.41-2.67,2.08-3.9c1-1.85,2-3.87,3-6s2.06-4.16,3-5.95Z"/><g class="cls-3"><path class="cls-4" d="M525.9,176.06c7.59-9.39,14.59-19.29,23-28,11.58-11.94,25.83-21.55,34.84-35.54a7.9,7.9,0,0,0,1.67-4.73c-.26-3.09-3.73-4.85-6.81-5.2-9.81-1.11-18.56,5.72-26,12.27-12,10.66-23.84,21.71-34,34.17-10.35,12.66-20.47,27.73-36.42,31.36,2.79-13.09,11.58-24.1,21.28-33.32s20.59-17.21,29.43-27.25c9.84-11.18,17.49-25.16,30.79-31.84,3-1.49,6.8-4.37,5-7.16a5.17,5.17,0,0,0-3.1-1.85c-14.83-4.3-31.16.62-43.73,9.59s-22,21.61-30.77,34.32-17.23,25.84-28.46,36.44c-3.54-7.23.42-15.74,4.32-22.8l23.59-42.72a46.68,46.68,0,0,1,6.14-9.28c3.66-4,8.64-6.62,12.06-10.81l.65-2c10.54-9.42,21.67-19.79,24.58-33.63a5,5,0,0,0,0-2.87c-.68-1.7-2.8-2.22-4.62-2.37-14.74-1.2-28.64,7.4-39.06,17.9-20.71,20.89-31.6,49.25-44.41,75.73-1.41,2.91-3,6-5.81,7.58s-7.18.88-8.21-2.19c-.59-1.75,0-3.66.7-5.38,13.73-36.1,40.27-65.58,60.79-98.3.93-1.49,1.88-3.33,1.12-4.92-1-2.06-3.91-2-6.17-1.58-11.66,2.08-24.24,4.65-32.12,13.5a48.47,48.47,0,0,0-7,11.38c-11.88,24.58-20.21,51.49-38,72.19-1.91,2.22-5,4.52-7.44,2.89-2-1.32-1.81-4.2-1.42-6.53a382.06,382.06,0,0,1,17.3-65.94c2.42-6.71,5.05-13.46,5.79-20.56a8.15,8.15,0,0,0-.35-4c-1.72-4-7.65-3.36-11.52-1.35-9.14,4.75-16,13.13-20.67,22.3s-7.43,19.2-10.13,29.14q-7.58,27.79-15.14,55.6c-.77,2.81-1.86,6-4.58,7.07s-5.74-.6-7.32-3-2-5.3-2.46-8.11a245.77,245.77,0,0,0-8-34.19c-.9-2.89-1.88-5.83-3.81-8.16s-5-3.93-8-3.27c-5.5,1.22-6.66,8.42-6.81,14a281.86,281.86,0,0,1-7.12,55.72l.42,0c-.71,2.7-4.51,3.51-6.94,2.14s-3.78-4.07-4.84-6.65-2.1-5.34-4.25-7.13c-4.33-3.61-11.45-1.36-14.68,3.26s-3.52,10.66-3.15,16.29,1.23,11.37-.11,16.84c-.36,1.47-1.18,3.15-2.69,3.24-2.05.13-2.81-2.54-3.64-4.42-2-4.64-8.15-6.45-13-4.91s-8.43,5.66-10.88,10.1c-3,5.47-4.63,12.22-2.18,18,.79,1.85,2,3.56,2.38,5.53s-.34,4.4-2.25,5-4-1-5.85-2c-5.11-2.72-12-.55-15.39,4.12s-3.7,11.16-1.66,16.57,6.14,9.86,10.75,13.35l-.9,2.62c-5.68-5.44-16.09-4.58-20.8,1.71-5.62,7.51-2.45,18.2,1.62,26.65a5.66,5.66,0,0,1,.79,2.88c-.29,2.93-4.27,3.31-7.07,4.19-6.27,2-8.85,9.31-10.16,15.75-.51,2.53-.88,5.43.73,7.45,1.24,1.56,3.41,2.21,4.48,3.88,1.46,2.26.2,5.43-1.91,7.1s-4.83,2.28-7.38,3.13c-5.66,1.91-11.08,5.53-13.48,11s-.74,12.89,4.58,15.59c2.22,1.13,5.47,2.33,4.95,4.77-.34,1.62-2.25,2.28-3.86,2.72a71.25,71.25,0,0,0-29.36,16.17,10.76,10.76,0,0,0-3.23,4.27c-.57,1.72-.13,3.89,1.44,4.79,1.94,1.11,5,0,6.26,1.87.88,1.26.19,3-.83,4.19-2.73,3.11-7.26,4-10.39,6.68-5.8,5.05-4.62,14.75-.15,21,2.86,4,7.08,7.2,10,11-7-8.05-15.44-14.74-25.33-17.65-7.15-5.58-14.55-10.82-22-16-6.82-4.8-15-9.84-23-7.36-3.25,1-6.22,3.49-7,6.81a13.29,13.29,0,0,0,.2,5.61c3.15,15.39,14,27.63,27,37.06q-.15.81-.27,1.62l-2.6-1.5,2.57,1.73c-.07.47-.14.94-.19,1.42-.76.15-1.51.36-2.25.57a102.07,102.07,0,0,0-22.89-9.13c-6.12-1.53-12.62-2.29-18.7-.61C62.48,424.44,55,434,53.44,444.29c-.66,4.44-.08,9.59,3.45,12.37a16.1,16.1,0,0,0,6.4,2.56l31.08,7.52a5.89,5.89,0,0,1,.25,1.94l-9.46-2.05c-6.2-1.34-12.53-2.7-18.84-2-.14,0-.27.06-.4.07l-3.76-.94c-.41-.34-.94.26-.87.77l-1.36-.24,1.37.25a.36.36,0,0,0,0,.18,1.4,1.4,0,0,0,.87.62c-.13,0-.25.08-.38.12H60.35l1.11.1a54.56,54.56,0,0,0-11,4.3c-10.49,5.31-21,14.32-21,26.07,0,3.28,1.07,6.84,3.82,8.62a11.66,11.66,0,0,0,5,1.5c13.39,1.63,26.69-2.82,40.09-4.35,2.71-.31,5.43-.46,8.14-.56a12.62,12.62,0,0,0,2.1,2.16c2.12,1.67,4.84,2.76,6.24,5.07-5.33-.28-10,3.6-12.44,8.46a193.4,193.4,0,0,0-36.74,17.29c-5.5,3.35-11.53,8.37-10.68,14.75.52,3.89,3.67,7,7.3,8.52s7.67,1.52,11.57,1.21c8.33-.65,16.43-2.8,24.42-5.31a183.06,183.06,0,0,0-39.61,25.54c-3.09,2.65-6.15,5.52-8,9.18s-2.15,8.28.12,11.67,6.82,4.89,11,5.26c9.68.84,19.23-2.44,28.1-6.41,15.43-6.9,29.77-15.94,43.82-25.39a10.41,10.41,0,0,0,1.3,1.67c.28.28.61.49.91.74-3.55,1.65-7.06,3.37-10.53,5.2h0c-4.19.33-7.56,2.89-10.59,6a238.12,238.12,0,0,0-22,14.8,13.64,13.64,0,0,0-3,2.79l20.63-12.79c-.11.13-.24.27-.35.41-8.59,9.59-19.37,17-28.28,26.26S45.72,639.65,47,652.46c.69,6.84,5,14.2,11.8,15a11.76,11.76,0,0,0,3.08-.13c-1.4,1.5-2.83,3-4.22,4.48l4.81-4.58a26.36,26.36,0,0,0,5.18-1.62c1.13-.46,2.24-1,3.35-1.49-3.24,3.17-6.55,6.27-10,9.24-2.48,2.16-5.18,4.55-5.68,7.8-.7,4.55,3.63,8.72,8.2,9.29s9.07-1.54,12.88-4.14C80,683.86,83.23,681,87,679l-.24.27a21.75,21.75,0,0,0-6.49,6.94l-7.1,7.6c2.12-2,4.18-4.1,6.28-6.14a21.34,21.34,0,0,0-2.1,7,22,22,0,0,0,6.56,18.15,9.25,9.25,0,0,0,4.46,2.61c2.83.52,5.58-1.1,7.89-2.81a78.4,78.4,0,0,0,12.65-12l-.58.91c.38-.52.77-1.07,1.15-1.61,3.6-4.27,6.92-8.81,10.13-13.38q10.58-15.06,20.17-30.78A119.8,119.8,0,0,1,123,694c-5.45,8.14-12.26,17.47-9.13,26.75,1.88,5.55,7,9.41,12.36,11.78a11.84,11.84,0,0,0,5.94,1.32,12.86,12.86,0,0,0,5.8-2.66,97.66,97.66,0,0,0,34.54-43.6q-2,19.62-2,39.37c0,4.27.06,8.66,1.74,12.58a16.29,16.29,0,0,0,28.21,3.08c3-4.15,3.84-9.41,4.61-14.46q2.43-15.79,4.84-31.6l2.75-9.75A56.64,56.64,0,0,0,219,671.54l.1-.15c0,.15,0,.27,0,.44s.08-.16.28-.82c2.93-4,4.76-3.08,7.75-8.08a7.47,7.47,0,0,1,.82,0c.07,1.47,0,4.19,1.06,3.55,1.65-1,4.14-.78,5.09.88a5.39,5.39,0,0,1,.53,2c.28,2.14.45,4.27.59,6.41-.06.77-.11,1.51-.11,2.18a16.61,16.61,0,0,0,.32,2.9c.39,18.62-3,37.47.19,55.84.89,5.13,2.91,10.89,7.79,12.71,5.25,2,11-1.78,14.42-6.19,5.43-6.93,7.92-15.73,9.1-24.45a97.37,97.37,0,0,0-2.84-39.57c-1.29-4.52-2.58-10.22,1-13.23,6,2.74,7.08,10.64,9.91,16.63,3.34,7.08,9.81,12.08,16.06,16.8q.8.61,1.62,1.2c.11.31.18.63.31.94,2.11,5.23,8.55,9,13.58,6.48,2.5-1.26,4.12-3.72,5.74-6s3.52-4.61,6.2-5.39,6.2.85,6.29,3.65l-.4-.13a282.09,282.09,0,0,1-5.57,55.9c-1.12,5.52-1.6,12.79,3.48,15.22,2.73,1.3,6.1.43,8.49-1.41s4-4.48,5.54-7.09a244.7,244.7,0,0,0,15.45-31.53c1.07-2.64,2.15-5.39,4.22-7.34s5.45-2.86,7.8-1.26,2.75,5,2.87,7.92q1.14,28.79,2.27,57.58c.41,10.29.82,20.67,3.33,30.66s7.3,19.7,15.14,26.38c3.32,2.82,8.95,4.78,11.53,1.27a8,8,0,0,0,1.24-3.84c.88-7.09-.17-14.25-1-21.34a381.1,381.1,0,0,1-2.06-68.13c.14-2.36.64-5.21,2.85-6.05,2.73-1,5.24,1.9,6.6,4.49,12.69,24.16,14.77,52.26,20.83,78.87a48.2,48.2,0,0,0,4.26,12.66c5.69,10.4,17.38,15.73,28.28,20.37,2.1.9,4.94,1.64,6.36-.16,1.1-1.37.59-3.38,0-5-12.65-36.49-31.9-71.17-37.17-109.43-.25-1.83-.44-3.83.53-5.4,1.69-2.76,6.11-2.5,8.49-.3s3.24,5.54,4,8.7c6.54,28.68,10.79,58.75,26.28,83.76,7.79,12.57,19.4,24.07,34,26.21,1.81.27,4,.23,5-1.27a5.07,5.07,0,0,0,.65-2.8c.27-14.13-8.25-26.74-16.41-38.28l-.17-2.14c-2.4-4.85-6.66-8.54-9.33-13.24a46.68,46.68,0,0,1-3.9-10.42q-6.69-23.46-13.4-46.93c-2.21-7.75-4.16-16.93.92-23.19,8.56,12.86,13.84,27.55,19.54,41.91s12.06,28.78,22.29,40.34,25,20,40.46,19.17a5.23,5.23,0,0,0,3.44-1.11c2.37-2.32-.72-6-3.28-8.1-11.46-9.5-15.78-24.84-22.85-37.94-6.36-11.77-15.19-22-22.57-33.16s-13.47-23.86-13.25-37.24c14.72,7.11,21.2,24.07,28.45,38.73,7.13,14.43,16.14,27.84,25.49,40.94,5.74,8,12.73,16.66,22.54,17.77,3.08.36,6.85-.58,7.8-3.53.53-1.62,0-3.38-.57-5-5.63-15.65-17.36-28.21-26-42.45-6.24-10.33-10.84-21.55-16.12-32.41-20.91-43-52.37-79.75-83.48-116A63.28,63.28,0,0,0,472.05,613c-4.12-9.36-10.64-17.42-17.09-25.36l-48.31-59.51c-3.89-4.8-7.86-9.71-10-15.5a56.08,56.08,0,0,1-3.09-25.06l.62-.1c-.1-.15,2.19-7.3,7.4-15.73l-.22-.17-3.4.2.54-.7c-1.32-.86-2.68-1.71-4-2.57a58.41,58.41,0,0,0,11.94-4.61c7.49-4,14-11.07,14.8-19.53.23-2.41,0-4.93,1-7.16,1.09-2.59,3.54-4.33,6-5.76a61.79,61.79,0,0,1,30.24-8.52c-6.54-17.61-23.93-29.39-42.1-34.13s-40.53.9-59.28,2.1c-17.69,8.6-35.86,14.69-54.17,19.95-1.05-.76-2.08-1.53-3.12-2.3,12.38-3.15,25.29-6.45,38.9-10.32l6.7-3.58c-1.48-13.21-4.8-34.14,2.54-45.23,3.41-5.15,8.37-9.05,13.25-12.85l60.43-47.14c8.07-6.29,16.23-12.69,22.35-20.88a63.15,63.15,0,0,0-25.36,1.89C457,242,495.88,213.24,525.9,176.06ZM220.49,434.43c-2.37.85-4.74,1.74-7.1,2.65,2.19-1.1,4.39-2.17,6.6-3.19Zm21.66,126.89a21.79,21.79,0,0,0-9.67-1.62c-5.22.55-9.62,4-14.39,6.19-6.81,3.18-14.49,3.92-21.59,6.4-9.32,3.27-17.42,9.46-26.84,12.44a28.13,28.13,0,0,1-17.91-.17,38.05,38.05,0,0,0,8.66-1.15c8.48-2.21,15.71-7.6,23.59-11.45,19.53-9.54,42.83-9.52,63.07-16.67l4.33,2.06c-2.67,2.18-4.23,3.6-3.9,3.72,2.21-.69,4.42-1.52,6.64-2.42l2.52,1.2c-.24.36-.5.71-.77,1a58.16,58.16,0,0,0-3.81,5.3A52,52,0,0,0,242.15,561.32Zm-77.47-101c.18-1,.37-2,.6-2.95l.64.29-.63-.36c.19-.77.39-1.53.64-2.29,2,1.19,3.9,2.43,5.81,3.71l-3.44-.9c1.3.67,2.45,1.2,3.54,1.67-.89.87-1.78,1.76-2.64,2.68C167.68,461.64,166.18,461,164.68,460.36Zm-10.39,20.87-.24.33-4.31-.93a6,6,0,0,1,.57-.36Zm-38.17,94.36a23.57,23.57,0,0,0,8.16,3.75c2.7.82,5.44,1.63,8.2,2.37a34.57,34.57,0,0,1-17.43.65,62.23,62.23,0,0,0-7.27-1.61Z"/><path class="cls-4" d="M528.91,179.07c10.61-13.22,20.62-26.34,33.29-37.7,6-5.37,12.11-10.63,17.47-16.64,4-4.52,11-11.4,9.83-18-1.15-6.78-9.09-8.83-14.93-8.33-7.51.65-14,4.63-19.81,9.21a262.1,262.1,0,0,0-37.38,36.34c-10.31,12.22-19.8,28.25-36.33,32.41l5.23,5.23c4.62-19.83,21.36-32.57,35.88-45.33A153.83,153.83,0,0,0,542.27,115c5.54-7.12,11-14.83,18.35-20.19,4.79-3.48,15.5-7.15,12.17-15.12-3.11-7.46-16.89-7-23.42-6.29-19.15,2-35.12,13.67-47.32,27.91-15.1,17.63-25.6,38.82-42.42,55l7.1,1.87c-3.48-8.34,2.31-16.67,6.25-23.79l13.68-24.78c4.21-7.62,7.87-17.09,14.16-23.25,2.71-2.66,6-4.69,8.71-7.3,1.78-1.7,3.05-4.5,3.94-5.7,1.34-1.8,5.57-4.74,7.66-6.82A89.77,89.77,0,0,0,529,57.7c4.24-5.52,8.18-12.2,9.17-19.21,2.35-16.62-24.65-8.5-32.13-4.76-28.3,14.14-43.33,46.76-56,73.94-1.65,3.55-3.29,7.09-5,10.63-1.6,3.38-3,7.47-5.38,10.39-1.25,1.52-3.46,3.16-3.51.24,0-1.55,1.56-4.12,2.15-5.55,1.67-4,3.52-7.93,5.48-11.8,7.58-14.93,17-28.83,26.6-42.5,4.76-6.76,9.58-13.48,14.3-20.28,4.43-6.36,10.07-13,13.19-20.16,2.55-5.79-.71-11.39-7.22-11.44-6.77-.05-14.68,2.31-21,4.59s-12.57,5.74-17.06,11c-5.1,6-8.15,13.59-11.35,20.72-6.62,14.76-12.49,29.92-20.54,44-1.15,2-12.74,21.06-14.41,20-1-.61,1.87-11.07,2.15-12.49q1.39-7,3-13.89,3.19-13.36,7.34-26.49c2.69-8.51,6.12-16.8,8.64-25.36,1.69-5.73,4.53-14.74-.75-19.47-4.47-4-11.28-2.42-16,.1-13.79,7.33-21.89,22-26.88,36.17-6.17,17.53-10.24,36-15.12,53.87l-3.66,13.42c-.57,2.12-1.1,4.26-1.74,6.36-.82,2.69-2.15,4.33-4.32,1.57s-2.12-9.15-2.76-12.57c-.85-4.54-1.82-9.07-2.92-13.56-1.86-7.58-3.33-17.08-8.19-23.42-3.82-5-10.81-7.37-16.31-3.6-4.89,3.34-6,9.79-6.33,15.29-.55,9.15-.87,18.24-2,27.34a283.33,283.33,0,0,1-5,28.48c-.57,2.48,1.21,5.63,4.1,5.38l.42,0-3.68-6.4c-1.32,2.88-5.1-6.22-5.53-7.1a14.41,14.41,0,0,0-6.84-7.32c-5.72-2.6-12.73-.27-16.86,4.16-5,5.38-5.6,13.36-5.21,20.32.25,4.36,1,8.79.5,13.16l-.45,2.55,2.3-.18a17.3,17.3,0,0,0-.86-2,13.7,13.7,0,0,0-2.87-3.8c-12-11-26.68,2.81-30.72,14.3a25.61,25.61,0,0,0-1.49,10.33,19.75,19.75,0,0,0,1.27,5.59c.45,1.18,2.92,4.69,2.31,5.71,1.11-1.86-6.7-3.57-7.68-3.64a17.25,17.25,0,0,0-9.8,2.3c-6.83,4-9.73,12-8.83,19.56,1,8.52,6.51,15.42,13.08,20.57l-1.1-4.14-.9,2.62,7.1-1.88a19.13,19.13,0,0,0-23.33-1.52c-8.3,5.74-8.88,16.62-6.29,25.52a56.29,56.29,0,0,0,2.52,6.78,21.12,21.12,0,0,1,1.24,2.74c.09-.22-2.53.47-2.64.51a17,17,0,0,0-9.89,7.34c-4.31,6.73-8,18.93-.8,24.78.86.7,2.17,1,2,2.24-.17,1-3,2.09-3.51,2.27-2.29.87-4.66,1.48-6.9,2.52a25.27,25.27,0,0,0-11.55,10.1c-4.32,7.7-2.41,18.17,5.45,22.73a9.9,9.9,0,0,0,2,1l1,.57q-.32-2.9-2.56-1.4c-2.42,0-5.77,2-8,2.89a73.71,73.71,0,0,0-14.24,7.92c-5.51,4-18.31,13.86-9.22,21.06.49.39,6.23,2.89,6.38,1.91.31-2.12-7.93,2.4-8.22,2.58a16.39,16.39,0,0,0-7.9,10.85c-2.7,13,7.35,20.55,14.65,29.4l6-6A72.52,72.52,0,0,0,155,403a58.13,58.13,0,0,0-9.25-4.59c-3.07-1.27-5.44-3.29-8.1-5.27-6.53-4.86-13.11-9.87-20-14.18-5.75-3.58-12.34-6.49-19.26-5.49-5.62.81-11.32,4.49-12.7,10.33-1.46,6.13,1.36,13.32,3.88,18.83,5.41,11.82,14.93,21,25.23,28.64l-2-4.8-.27,1.62,6.24-2.54L116.15,424c-4.79-2.76-8.79,4.31-4.3,7.35l2.57,1.73-2.1-3.67-.19,1.42,3.12-4.1q-1.14.24-2.25.57l3.27.43c-19.84-10.34-49.07-19.87-63,4.38-4.54,7.92-7.26,20.69.58,27.56,4.2,3.68,10.84,4.27,16.05,5.53l23.31,5.64-3-3,.1.81,5.38-4.1c-7.52-1.63-15.1-3.68-22.8-4.27a37.15,37.15,0,0,0-5.68,0,18.11,18.11,0,0,0-2.08.22c1.68.13,2.1.1,1.23-.09-1.53-.39-3.28-1-4.87-.87a4.49,4.49,0,0,0-4.1,3.12l-.26.71,5.23-3-1.35-.24c-5.34-.93-7.66,7.21-2.27,8.2l1.37.25L57,464.5c.26,2.25,1.2,3.19,3,4.47l1-7.77-.71,0c-5.55,0-5.39,8.06,0,8.51l1.11.09-1.13-8.35c-15.94,4.46-40.49,19.68-34.27,39.81,3.17,10.25,15.4,9.87,24.13,9.11,12.24-1.07,24.07-4.51,36.38-5l-3-1.25c2.16,2.5,5.73,3.81,7.67,6.37l3.67-6.4c-7.21.13-12.74,4.36-16.11,10.57l2.54-2a207,207,0,0,0-31.36,14c-7.52,4.18-17.63,9.45-19.07,18.93s7.13,16,15.72,17.1c10.91,1.33,22.54-2.18,32.84-5.37l-3.27-7.77a192.06,192.06,0,0,0-39.13,25.06c-5.07,4.26-10.2,9.1-11.61,15.84-1.27,6.08.86,12.33,6.25,15.67,12.54,7.75,30.12.75,42.08-4.73,14.84-6.81,28.65-15.57,42.18-24.65l-5.82-1.53a15.24,15.24,0,0,0,2.87,3.28l.86-6.68a53.72,53.72,0,0,0-7,3.4c-1.93,1.29-2.12,1.06-4.76,1.79-4.45,1.24-7.28,4.42-11,6.93-7.92,5.39-17.94,9.91-24.26,17.28-3,3.49.82,9.37,5.16,6.68l20.63-12.79-5.15-6.68C74,603.72,54.81,614,46.27,633.29c-3.44,7.81-5.09,17.16-2.18,25.42,2.74,7.74,9.23,13.74,17.81,12.84l-3-7.26c-1.41,1.49-2.83,3-4.23,4.47-3.75,4,2,9.79,6,6a34.11,34.11,0,0,1,4.05-3.84c1.31-.87,5.85-2,8.44-3.18L68,661.07c-7.41,7.2-24.67,18.31-13,29.67,11.25,11,24.37-2.53,34.16-8.07L84,676c-2.64,2.81-5.35,5.43-7.85,8.39-1.88,2.23-4,4.28-6,6.42-3.73,4,2,9.81,6,6,2.12-2,4.19-4.1,6.29-6.15l-6.68-5.15c-4.8,10.55-3.11,23.46,6.11,31.2,10.83,9.07,23.32-5.43,30-13.13l-6.67-5.15-.58.91c-3,4.69,4.19,8.64,7.34,4.29,10.9-15,21.72-29.88,31.45-45.77l-7.77-3.28c-4,15.95-11.39,29.13-20.1,42.87-7.58,12-10.2,26.09,2.71,35.45,5.17,3.74,11.76,6.73,18,4.11,6.07-2.54,11.76-8,16.43-12.54a104.39,104.39,0,0,0,23.84-35.74l-8.35-1.13c-1,9.81-1.63,19.65-1.9,29.51-.21,7.64-1.16,16.29,1.74,23.57,5.05,12.69,21.3,16.88,31.93,8.39,5.7-4.55,7.72-11.33,8.85-18.25,1.49-9.05,2.79-18.13,4.18-27.19a107.44,107.44,0,0,1,3-13.41,31.61,31.61,0,0,1,2.58-5.58c.92-1.88,1.75-3.82,2.5-5.77.55-1.44.84-4.14,1.64-5.35l-7.92-2.14,0,.44c-.26,4.69,5.63,5.12,7.93,2.14,2.42-3.14,5.76-5.42,8-8.89l-3.67,2.1h.82l-4.25-4.25a12.39,12.39,0,0,0,1.11,5.71,4.22,4.22,0,0,0,3.67,2.11c2.38-.07,1.47-2.27,2.09.19a27.48,27.48,0,0,1,.32,5.94c.07,3.89.36,7.75.26,11.66-.23,9.67-1.11,19.31-1.16,29-.06,11.48-.33,37.23,17,36.59,16-.58,22.36-22.17,24.07-34.81a100.75,100.75,0,0,0,.08-26.48,104.75,104.75,0,0,0-2.51-13c-.79-3-3.15-8.18-.54-10.84l-5.15.66c6.25,3.37,6.85,13.54,10.73,19.12,4.39,6.32,10.7,11,16.86,15.51l-2-2.54c2.07,6.34,8.06,11.56,15,11.31a12.86,12.86,0,0,0,8.74-4.13c.84-.86,7.86-10.15,8.41-7.5l5.23-5.23-.4-.13a4.29,4.29,0,0,0-5.39,4.1c0,19-2.45,37.32-5.64,56-.9,5.27-1.36,11.56,2.25,16,4.22,5.16,11.59,4.91,16.63,1.08,6.05-4.58,9.48-13.09,12.85-19.64,3.93-7.66,6.85-15.76,10.65-23.46.66-1.33,2.89-5.11,4.86-3.53.92.74.69,4,.73,5,.22,5,.39,9.93.58,14.89q.56,13.9,1.1,27.8c.67,17.08,0,35.3,5.82,51.63,3.54,10,13.62,29.47,27.11,26.49,7.18-1.59,7.69-9.53,7.69-15.56,0-9.39-1.84-18.79-2.65-28.13s-1.28-18.82-1.4-28.24q-.08-6.82.08-13.65c.09-4.12-.75-10.39.64-14.29,0,0,.19-1.08-.2-1.09.41,0,1.56,2.17,1.65,2.32a52,52,0,0,1,2.3,4.68A114.28,114.28,0,0,1,410.09,771a221.09,221.09,0,0,1,6.17,24.43c1.68,8.3,3.09,16.65,4.71,25,1.52,7.8,2.77,16.09,6.26,23.3,5.89,12.17,19.8,19.8,32.13,24,5.44,1.87,12-.08,11.83-6.88-.09-3.51-2-7.25-3.18-10.47-1.55-4.2-3.17-8.36-4.82-12.51-6.28-15.78-13.12-31.35-18.83-47.35A256.43,256.43,0,0,1,436.8,766q-1.49-6-2.59-12.13c-.37-2.14-2.48-12.12,2-6.44,2,2.51,2.31,7.63,3,10.62.93,4.25,1.83,8.51,2.73,12.76,1.76,8.23,3.54,16.45,5.7,24.59,4.09,15.43,9.57,30.88,18.39,44.29,7.74,11.77,18.88,22.76,33.1,25.82,6.54,1.41,13,0,13.31-7.76.33-7.42-2.13-14.87-5.25-21.49a91,91,0,0,0-5.93-10.44c-1.08-1.69-2.22-3.35-3.36-5s-1.51-1.5-2-2.79a25.6,25.6,0,0,0-3.7-7.6c-2.42-3.24-5.24-6.22-7-9.89-3.82-7.92-5.41-17.41-7.82-25.84l-7.5-26.28c-2.08-7.29-5.23-15.93-.32-22.72h-7.34c20.81,31.87,24.11,79.27,61.64,98,7.65,3.82,16.93,6.54,25.56,5.38,8.21-1.1,8.72-9.18,3.85-14.51-3-3.23-6.3-5.74-8.88-9.37a83.59,83.59,0,0,1-6.83-12c-4.1-8.47-7.74-17.07-12.86-25-12.2-18.93-30.69-36.74-30.78-60.77l-6.4,3.67c10.36,5.29,16.15,15.23,21.16,25.31,5.72,11.47,11.26,22.82,18.18,33.65,6.62,10.35,13.46,22,22.4,30.51,6.14,5.89,18.8,13.1,26.51,5.62s-3.51-22.93-7.81-29.59c-7.1-11-15.23-21.12-21.29-32.74s-11.13-24-17.43-35.65a362.23,362.23,0,0,0-21.68-34.89c-17.32-24.85-37-47.89-56.74-70.86l-5.15,6.68a72.72,72.72,0,0,0,26.43,8.12c3.54.39,4.86-3.83,3.68-6.4-4.72-10.3-11.91-19-19-27.75L432,552.55c-8-9.81-16-19.54-23.88-29.44-8.37-10.54-11.39-22.19-10.28-35.58l-3.12,4.1.62-.1c1.95-.33,3-2.37,3.12-4.1-.15,1.62.15,0,.29-.38.41-1.16.87-2.31,1.37-3.44a84.94,84.94,0,0,1,5.16-9.76c1.28-2.13.3-4.46-1.52-5.82-1.6-1.19-4-.66-5.77-.55l3,7.26.55-.71c1.7-2.2,1.66-5-.86-6.67q-2-1.29-4-2.57l-1,7.77c12.34-3.61,25.76-10.64,29.19-24.18.71-2.8.15-6,1.05-8.72,1.21-3.63,5.91-5.56,9.12-7.08a58.75,58.75,0,0,1,23.42-5.45c2.5-.08,5.15-2.69,4.1-5.38-10.28-26.31-39-39.9-66.06-39.07-7.87.24-15.7,1.28-23.51,2.25-7.3.92-14.8.77-21.48,3.89-16,7.46-32.8,13-49.73,17.88l3.27.43-3.11-2.3-1,7.77c15.63-4,32.33-6.7,46.61-14.33a4.13,4.13,0,0,0,2.11-3.67c-1.3-11.37-3.49-23.5-1.18-34.86,2.79-13.78,17.84-21.87,28.12-29.88l38.74-30.22c11.45-8.93,23.38-17.4,32.31-29,2.21-2.86-.91-6.08-3.67-6.4a70.47,70.47,0,0,0-26.49,2.05l3.27,7.77c38.67-28.52,77.75-57.46,108.26-95,3.42-4.21-2.56-10.27-6-6-30.06,37-68.44,65.57-106.54,93.67-3.68,2.71-1.69,9.1,3.28,7.77a63.86,63.86,0,0,1,24.23-1.74l-3.67-6.4c-9.53,12.38-23.44,21.38-35.63,30.9l-40.29,31.43c-10.62,8.28-21.9,16-24.36,30.11-2.07,11.87-.22,24,1.13,35.81l2.1-3.67c-13.54,7.23-29.73,9.69-44.58,13.47-3.86,1-3.77,5.72-1,7.77,4.07,3,5.09,3.12,9.93,1.7q5.33-1.56,10.6-3.24c7.68-2.44,15.29-5.11,22.77-8.08,6.82-2.72,13.72-7.15,21-7.84,7.46-.72,14.87-1.84,22.33-2.63,14.68-1.54,28.91-1.41,42.55,4.88,12,5.51,22.62,14.56,27.5,27.05l4.1-5.38a68.07,68.07,0,0,0-23.47,4.75c-5.47,2.2-12.5,5.13-15.76,10.41-3.41,5.54-1.39,12.38-5.19,18-4.73,7-12.83,10.29-20.62,12.57a4.31,4.31,0,0,0-1,7.77l4,2.57-.86-6.68-.54.7c-2,2.63-1.08,7.5,3,7.26,1.57.44,2.07.24,1.48-.61l-1.53-5.81c-3.1,5.14-7.39,11.7-8,17.87l3.12-4.1-.62.1c-1.93.32-3,2.36-3.12,4.1-1,11.91.89,24.5,7.56,34.63,7,10.7,16.07,20.37,24.14,30.3l25.39,31.28c8.06,9.93,16.63,19.64,22,31.37l3.67-6.4a61.31,61.31,0,0,1-22.14-7c-4.37-2.34-8.27,3-5.15,6.67,32.24,37.6,64.39,75.7,85.53,120.9,5.17,11,10.2,22.11,17,32.29,6.31,9.46,13.5,18.37,18.72,28.52a37.13,37.13,0,0,1,3.23,7.3c.84,3.18-.42,3.49-3.45,3.07-5.59-.78-10.14-5.23-13.67-9.29-8-9.13-14.6-19.91-20.91-30.22-6.63-10.82-11.6-22.38-17.59-33.52-5.2-9.67-11.87-18.67-21.85-23.77a4.31,4.31,0,0,0-6.4,3.68c.07,18.15,9.51,33.72,19.84,48,5.46,7.53,11.15,14.93,15.72,23,4,7.07,6.94,14.63,10.63,21.84a64.49,64.49,0,0,0,13.73,18.48c.65.6,1.28,1.24,1.93,1.84l.45.64c.4.84.55.86.46.06.93-.29-1.92-.53-2.38-.53-1,0-2.11,0-3.16-.15a40.91,40.91,0,0,1-13-3.56c-16.42-7.47-26.68-22.87-34.08-38.7-8.85-18.93-14.43-39.32-25.95-57-1.85-2.84-5.45-2.62-7.34,0-8.9,12.3-.15,30.64,3.48,43.35l7.5,26.28c2.09,7.31,4.09,14,8.81,20.07,1.52,2,5,5.75,5.39,6.92.27.79,0,1.76.27,2.57.57,1.87,2.28,3.63,3.37,5.22,4.58,6.68,9.09,13.7,11.4,21.54.46,1.56,2.75,9.52,1.47,10.36-1.68,1.11-8.32-2.15-10-3-6.58-3.21-12.07-8.28-16.63-14-20.49-25.46-23.7-60.15-31.16-90.76-1.39-5.71-4.22-11.63-10.62-12.67-6.1-1-10.75,3.33-10.73,9.38,0,7.65,2.43,15.87,4.33,23.23,2,7.73,4.43,15.34,7.12,22.86,5.61,15.72,12.31,31,18.5,46.51,1.55,3.88,3.07,7.76,4.52,11.67.63,1.68,1.24,3.35,1.85,5a16.25,16.25,0,0,0,1.18,3.36c1,1.27-.29,1,1.13.73-2.13.43-7.51-3.06-9.47-4a68.68,68.68,0,0,1-9.11-5.17c-13.65-9.4-14.6-27.21-17.37-42.22-2.94-16-5.77-32.09-11.71-47.25-2.24-5.72-4.7-14.14-10.25-17.56-5.19-3.19-10.73.17-12.1,5.65-1.94,7.75-1.1,17.06-1.13,25q0,13.16.83,26.31c.6,9.09,1.74,18.11,2.7,27.17.42,4,1.48,9.75.28,13.69-1.45,4.78-6.17.06-8.37-2.23-11.4-11.87-13.39-29.35-14.16-45-.89-18.32-1.46-36.67-2.19-55-.23-6,.93-14.89-4-19.45-4.77-4.42-11.81-2.26-15.56,2.32-4.55,5.57-6.48,13.83-9.54,20.28-3.44,7.21-6.9,16.09-12.21,22.14-2.87,3.28-7.07,3.92-7.58-1.19-.34-3.41.67-6.9,1.29-10.22,1.62-8.63,2.84-17.35,3.69-26.1.87-9,1.26-18.06,1.29-27.12l-5.38,4.1.4.13c3.27,1,5.85-2.23,5.23-5.23-1.57-7.49-10.55-8.53-15.83-4.29-3.07,2.46-4.67,7.14-8,9-4.54,2.55-6.72-2.53-8.68-5.45s-5.92-4.76-8.48-6.93c-3.49-3-6.76-6.25-8.85-10.37-3.48-6.87-4.34-14.85-11.78-18.85a4.35,4.35,0,0,0-5.15.67c-4.63,4.71-3.84,10.82-2.3,16.73a102.33,102.33,0,0,1,3.72,26.39c0,8.21-.91,16.66-3.67,24.44-1.8,5.09-9.41,20.08-16.6,13.84-2.33-2-3-6-3.55-8.8a88.48,88.48,0,0,1-1.21-14.17c-.17-9,.54-18,.94-27a154.9,154.9,0,0,0-.38-23.4c-.29-2.67-.53-5.52-2.7-7.41-2.67-2.32-4.92-1.37-7.89-1.28l3.68,2.1a3.4,3.4,0,0,0,0-1.42,4.32,4.32,0,0,0-4.25-4.25c-3.93,0-4.59,3.05-7.26,5.29a40.39,40.39,0,0,0-5.27,5.71l7.93,2.15,0-.44c.26-4.49-5.73-5.41-7.92-2.15-1.36,2-1.61,5.1-2.5,7.38-1.23,3.16-3.23,6-4.45,9.08a77.21,77.21,0,0,0-2.32,8.23c-3.27,12.5-3.45,25.8-6.21,38.44-1.35,6.2-4.71,12.12-11.71,12.76S176,740.4,175,733.85c-1.13-7.31-.25-15.29.06-22.64.33-7.88.92-15.75,1.69-23.6.51-5.19-6.71-5.17-8.35-1.13a93.77,93.77,0,0,1-18.82,29.12,83.31,83.31,0,0,1-13.77,11.94c-3.19,2.13-5.3,2.39-8.77.71a20.61,20.61,0,0,1-7-5.09c-8.46-10.09,4.75-23.64,9.84-32.18a126.19,126.19,0,0,0,14-34.12c1.16-4.68-5.23-7.43-7.78-3.28-9.72,15.89-20.55,30.71-31.44,45.77l7.34,4.29.58-.91c2.56-4-3.48-8.82-6.68-5.15-3.56,4.09-13.22,16.75-19,12.25s-6.65-13.76-3.8-20c1.91-4.2-3-8.74-6.68-5.15-2.09,2.05-4.17,4.12-6.28,6.15l6,6c2-2.14,4-4.24,6-6.42,1-1.1,1.73-2.19,2.63-3.39,1.51-2,3.55-3.22,5.21-5,3.27-3.5-.87-9.1-5.15-6.68-5.84,3.3-15,13.59-22.29,10.36-5.25-2.33-1.93-6.3,1-8.89,3.55-3.19,7.08-6.39,10.51-9.71,3.67-3.57-1-8.6-5.16-6.68-3.27,1.5-7.1,2-9.89,4.25-1.53,1.23-2.89,2.75-4.31,4.1l6,6,4.23-4.47c2.31-2.43.87-7.67-3-7.26-7.81.83-10.81-7.14-10.78-13.77,0-7.87,3.62-15.25,8.15-21.52,9.38-13,23.68-21.36,34.23-33.28,3.07-3.47-.85-9.34-5.15-6.68L67.71,600.57l5.16,6.68c6-7,15.73-11.46,23.34-16.44,3.28-2.14,5.4-4.68,9.29-5.85,4.38-1.33,8.49-3.82,12.67-5.78,2.34-1.09,2.88-5,.86-6.67a5.09,5.09,0,0,1-1.54-1.56c-1.25-1.79-3.78-2.89-5.81-1.53a356.11,356.11,0,0,1-32.44,19.85c-11.09,5.83-24.38,12.85-37.34,11.37-6.67-.76-10.51-5.5-6.72-11.86,2.94-4.95,8.47-8.74,13-12.18a192.09,192.09,0,0,1,32.36-19.68c4.33-2.13,1.3-9.19-3.28-7.77-9,2.78-18.82,5.88-28.34,5.27-4.42-.28-10.88-2.74-9.39-8.37.93-3.51,5-6.12,7.81-7.93a170.1,170.1,0,0,1,25.95-13.28c3.58-1.49,9.39-2.39,12.24-5,1.42-1.32,2-3.39,3.44-4.76a8.45,8.45,0,0,1,6-2.46c2.91-.05,5.72-3.7,3.67-6.39-2.35-3.11-5.59-5-8.51-7.53-3.43-2.91-8.31-1.65-12.56-1.14-10.64,1.29-21.11,4.36-31.87,4.58-4.71.09-11.22.63-11.8-5.36-.43-4.42,1.61-8.78,4.28-12.18,5.87-7.47,15.5-12.43,24.47-14.94,4.82-1.35,3.51-8-1.13-8.36l-1.11-.09v8.51a10.55,10.55,0,0,0,3-.28c3.72-1.09,3.93-5.7,1-7.77l-.88-.62,2.11,3.67,0-.18c-.2-1.74-1.17-3.74-3.12-4.1l-1.36-.25-2.27,8.2,1.36.24a4.39,4.39,0,0,0,5.23-3l.26-.71L61.55,468s2.22.58,3.1.69c2.41.3,4.9-.12,7.35,0,7.22.39,14.45,2.51,21.49,4,2.57.56,5.52-1.2,5.38-4.1a18.7,18.7,0,0,0-.4-3.07,4.2,4.2,0,0,0-3-3c-11-2.65-22.36-4.66-33.11-8.05-9.77-3.08-3.25-17.42,1.35-22.51,7-7.71,16.83-8.06,26.37-5.71a86.64,86.64,0,0,1,15.54,5.55c4.38,2,7,4.12,11.87,3,2-.46,2.88-2.27,3.12-4.1l.18-1.42c.19-1.5-1-2.91-2.11-3.67L116.15,424l-4.3,7.35,2.6,1.5c2.18,1.26,5.78.23,6.25-2.54l.27-1.62a4.52,4.52,0,0,0-2-4.8c-8-5.88-15.28-12.93-20.17-21.61-2.27-4-5.75-10.69-5.11-15.53,1-7.63,11.49-4.81,15.81-2.62,5.09,2.58,9.69,6.17,14.32,9.47,5,3.57,9.89,8.15,15.2,11.22,4.15,2.4,8.81,3.57,12.89,6.34a66.16,66.16,0,0,1,12,11c3.68,4.14,9.44-1.85,6-6-5-6.09-16.67-14.37-11.63-23.78,3.33-6.24,16.51-6.47,14.47-16.19-.75-3.54-3.72-4.59-6.81-5.28l-.56-.07c-1.4,0-1.6-.09-.59-.27.05-.54,1.74-1.94,2-2.19a53,53,0,0,1,7.1-5.64,67.79,67.79,0,0,1,13.17-7c3.75-1.48,9.61-2,12.44-5.16a6.69,6.69,0,0,0,.49-8.44c-2.27-3.12-6.8-3.39-8.54-6.92-5.13-10.4,9.09-14.89,15.76-17.72,3.43-1.46,6.45-3.93,7.53-7.66,1.23-4.28-.75-7.05-3.59-9.88-2.24-2.22-2.38-3.49-1.73-6.52a31.19,31.19,0,0,1,1.54-5.21c2-4.89,4.73-5.74,9.3-7.4,11.19-4.07,3.14-14.14,1.41-21.89-1.07-4.82-1-10.8,3.42-14a10.4,10.4,0,0,1,12.56.48,4.32,4.32,0,0,0,7.11-1.88l.9-2.62a4.09,4.09,0,0,0-1.09-4.13c-5.65-4.44-11.25-10.47-10.76-18.19.22-3.44,1.7-6.82,4.79-8.59,4.1-2.35,6.69-.38,10.49,1.23a7.85,7.85,0,0,0,11.22-7.32c.05-3.13-1.69-5.63-2.78-8.43-1.52-3.9-.82-8,.77-11.79,2.24-5.31,9.27-14.63,16-9.68,2.07,1.52,2.3,4.49,4,6.36a6.33,6.33,0,0,0,7.12,1.82c6.17-2.44,5.7-11.93,5.4-17.24-.37-6.53-2.65-16.89,3.16-21.83,8.13-6.93,10,6.52,13.91,10.71,4.3,4.66,12.75,5.19,15.72-1.25,1.21-2.64-.16-6.69-3.67-6.4l-.42,0,4.1,5.38a292.65,292.65,0,0,0,7.18-53.94c.11-3.08,0-6.33,1-9.29,1.79-5.46,6-3.22,8,1.13,3.4,7.48,5,16.33,6.76,24.32,1.58,7.28,1.36,17.57,6.12,23.61,3.74,4.76,10.8,6.27,15.29,1.6,4.8-5,5.63-14.63,7.36-21q3.66-13.42,7.31-26.84c4.53-16.62,7.82-34.87,17.38-49.5,3.86-5.91,9.52-12.36,16.28-15,.79-.31,3.46-1.34,4.36-.65,1.38,1,.2,4.53-.07,5.87a89.8,89.8,0,0,1-3.87,12.8,411.71,411.71,0,0,0-14.9,50.69q-1.43,6.48-2.63,13c-.62,3.35-1.64,6.95-1.31,10.38.61,6.54,7,9.41,12.54,6.16,5.82-3.42,10.22-11.15,13.78-16.69a180.45,180.45,0,0,0,11.13-20.45c6.82-14.36,12.09-29.62,19.79-43.55A30.12,30.12,0,0,1,471.94,30a75.83,75.83,0,0,1,10.12-2.79c1.72-.37,3.44-.7,5.17-1a10.58,10.58,0,0,0,2.19-.4l1.26-.07c-.05-1.31-.25-1.43-.63-.38-4.7,6.33-8.65,13.39-13.17,19.88s-9.22,13-13.82,19.58c-9.29,13.21-18.38,26.63-25.82,41-3.86,7.46-18.37,30.95-1.87,33.19,6.71.92,11.12-4.28,13.86-9.73,3.48-6.93,6.62-14.05,9.92-21.07,6.71-14.3,13.75-28.59,23.07-41.39C491.14,54.53,503,42.17,518.1,38.13c2-.55,9.23-2.51,11.24-1,.91.66-.15-1.65.35.62a6.66,6.66,0,0,1-.6,2.26A33.37,33.37,0,0,1,526.53,46c-3.7,6.89-9.2,12.56-14.87,17.86-2.26,2.12-4.93,3.93-6.37,6.68-1.11,2.1-2.4,3.15-4.86,5.14a53.13,53.13,0,0,0-14,16.83q-6.86,12.39-13.69,24.78c-4.18,7.58-8.89,15.08-12.42,23-2.87,6.43-4.58,13.42-1.76,20.17,1.21,2.89,4.59,4.3,7.11,1.88,13.13-12.63,22.53-28.23,33.07-42.94S522.15,89.83,540,84.06a46.75,46.75,0,0,1,12.61-2.35,39.56,39.56,0,0,1,6,.22,31.39,31.39,0,0,1,3.47.58c.81.16,1.61.37,2.4.6l-.64-.11c-.59,1.07-3.22,1.82-4.3,2.45a45.16,45.16,0,0,0-4.83,3.29A62.83,62.83,0,0,0,546,96.92c-5.36,6-9.88,12.67-15.1,18.77-5.84,6.8-12.6,12.68-19.37,18.53-14.32,12.38-29,25.9-33.45,45.08a4.3,4.3,0,0,0,5.23,5.23c15.74-4,25.81-16.87,35.48-29a278.69,278.69,0,0,1,40-40.38c3.45-2.86,7.24-5.65,11.48-7.22a16.33,16.33,0,0,1,6.69-1.2c4,.29,3.86,1.71,2.17,5-3.88,7.6-12.35,14.06-18.59,19.65-6.78,6.09-13.56,12.1-19.56,19-6.35,7.28-12,15.09-18.09,22.62C519.5,177.28,525.48,183.34,528.91,179.07Z"/><path class="cls-4" d="M219.36,430.33c-2.38.85-4.74,1.74-7.1,2.65l3.28,7.77q3.27-1.65,6.6-3.19L217,436.9l.49.54a4.26,4.26,0,1,0,6-6c-.17-.17-.34-.35-.5-.54a4.35,4.35,0,0,0-5.15-.66c-2.22,1-4.42,2.09-6.6,3.18a4.23,4.23,0,0,0-1.74,5.31c.78,1.78,3,3.24,5,2.47,2.36-.91,4.72-1.8,7.1-2.65a4.37,4.37,0,0,0,3-5.23C224,431.21,221.53,429.55,219.36,430.33Z"/><path class="cls-4" d="M243.28,557.22c-7.28-2.49-13.43-2.15-20.31,1.28-3.63,1.8-7,3.88-10.85,5.15-4.12,1.35-8.42,2.13-12.6,3.28-15.36,4.2-29.91,19.24-46.64,13.53l-1.13,8.35c17.28-.72,30.08-12.82,46.15-17.66,16.52-5,33.94-6.15,50.3-11.75l-3.28-.43,4.34,2-.86-6.67c-2,1.62-5.35,3.76-5.16,6.72.18,2.61,2.6,5,5.39,4.1,2.24-.73,4.44-1.54,6.64-2.42l-3.28-.43,2.52,1.2L253,557.7c-1.56,2.11-3.14,4.16-4.59,6.35l5.82-1.52a67.34,67.34,0,0,0-10.94-5.31c-5.11-2-7.32,6.25-2.26,8.2a55.29,55.29,0,0,1,8.91,4.45,4.34,4.34,0,0,0,5.82-1.52c1.44-2.19,3-4.25,4.58-6.35a4.27,4.27,0,0,0-1.52-5.82,19.17,19.17,0,0,0-3.54-1.63c-2.75-.61-6.33,1.58-8.9,2.42l5.38,4.1v-.17l-1.25,3a24.47,24.47,0,0,1,3.92-3.55c2-1.66,1.47-5.57-.86-6.68a35.49,35.49,0,0,0-4.84-2.27c-3.67-1.07-8.9,1.77-12.56,2.7-9.79,2.47-19.8,3.92-29.66,6.08-9.28,2-18.39,4.79-26.84,9.22-9.14,4.8-17.23,10.45-27.9,10.89a4.28,4.28,0,0,0-1.13,8.36c16.67,5.69,29.74-5,44.29-11.2,7.49-3.16,15.72-3.9,23.23-7,3.42-1.41,6.49-3.43,9.83-5,4.55-2.11,8.43-1.66,13.05-.07C246.21,567.19,248.44,559,243.28,557.22Z"/><path class="cls-4" d="M168.78,461.49c.18-1,.38-2,.6-2.95l-6.25,2.54.64.29c2.09.94,4.57.6,5.82-1.52a4.3,4.3,0,0,0-1.53-5.82l-.62-.36,1.95,4.8c.19-.77.4-1.53.64-2.29l-6.25,2.55c2,1.18,3.9,2.42,5.81,3.7l3.28-7.77-3.44-.9a4.26,4.26,0,0,0-3.28,7.77c1.17.59,2.35,1.15,3.55,1.67l-.86-6.68c-.9.88-1.78,1.77-2.65,2.68l4.14-1.09c-1.21-.46-2.35-.92-3.5-1.42-2.11-.9-4.56-.63-5.82,1.53-1,1.79-.6,4.9,1.53,5.82,1.83.78,3.66,1.56,5.53,2.27a4.19,4.19,0,0,0,4.14-1.09c.86-.92,1.74-1.81,2.64-2.69,1.77-1.72,1.69-5.58-.86-6.68-1.2-.51-2.38-1.07-3.55-1.66L167.17,462l3.43.9a4.26,4.26,0,0,0,3.28-7.78c-1.91-1.27-3.84-2.51-5.8-3.7a4.31,4.31,0,0,0-6.25,2.54c-.24.76-.45,1.52-.64,2.29a4.37,4.37,0,0,0,2,4.8l.62.36,4.29-7.34-.63-.29c-2.36-1.06-5.59-.37-6.25,2.54-.22,1-.42,2-.6,3a4.37,4.37,0,0,0,3,5.23C165.62,465,168.37,463.76,168.78,461.49Z"/><path class="cls-4" d="M150.62,479.08l-.24.33,4.8-2-4.31-.93,1,7.77c.19-.13.37-.25.57-.36l-3.28.43,4,1a4.25,4.25,0,0,0,2.26-8.2l-3-.72a9.2,9.2,0,0,0-2.13-.4,5.15,5.15,0,0,0-2.72.94,4.31,4.31,0,0,0-2,4.24,4.24,4.24,0,0,0,3.05,3.54l4.31.93a4.45,4.45,0,0,0,4.8-2l.24-.34c1.31-1.8.37-4.81-1.52-5.81A4.37,4.37,0,0,0,150.62,479.08Z"/><path class="cls-4" d="M114,579.26c5,3.61,11.51,5,17.38,6.55v-8.2a33.93,33.93,0,0,1-11.07,1.26c-3.87-.26-7.55-1.64-11.37-2.22l1,7.77,8.34-5.16c4.65-2.88.38-10.24-4.29-7.35l-8.34,5.17c-2.8,1.74-2.81,7.19,1,7.77,4.59.7,9,2.22,13.63,2.52a41.12,41.12,0,0,0,13.33-1.56c4.06-1.08,4-7.09,0-8.2-5.17-1.41-10.93-2.52-15.35-5.7S109.57,576.09,114,579.26Z"/><path class="cls-4" d="M423,444.12s-5.13,18.65-16.42,23.22c10.37,11.66,32.06,4,38,1.38a39.37,39.37,0,0,1,1.23,5.26c25.28-23.64,17.72-47.13,13.85-47-25,.58-36.61,16.41-36.61,16.41a42,42,0,0,1,20.81,23.18A62.11,62.11,0,0,1,423,444.12Z"/><path class="cls-4" d="M418.88,443c-2.22,7.91-6.63,17.16-14.46,20.68-2.59,1.16-2.58,4.88-.86,6.67,11.16,11.66,29.95,7.85,43.14,2.05l-6.25-2.54c.5,1.75.9,3.47,1.23,5.26.6,3.28,5,3.93,7.1,1.88,9.65-9.25,17.5-20.84,19-34.4.63-5.66.5-15.37-5.06-18.94-3.68-2.36-10.28-.5-14.21.3a53.89,53.89,0,0,0-15.66,5.87,43.57,43.57,0,0,0-13.51,11.38C418,443,419,446.07,420.87,447a38.72,38.72,0,0,1,18.86,20.64l6.24-4.8c-7.88-5.13-15.06-12.4-19.32-20.89-2.45-4.89-9.79-.59-7.34,4.29,4.9,9.76,13.32,18.06,22.37,23.94,2.94,1.92,7.6-1.31,6.25-4.8a47.46,47.46,0,0,0-22.77-25.72l1.53,5.81c-1.13,1.51,1.13-1.21,1.64-1.72a38.16,38.16,0,0,1,6.18-5,45.13,45.13,0,0,1,10.92-5.22,52.64,52.64,0,0,1,6.77-1.66c1.38-.24,2.78-.41,4.18-.53.81-.06,1.62-.11,2.43-.13,1.31,0,1.1-.1-.63-.4-.21.27-.22-.68.16.66.24.84.56,1.66.75,2.52a25.7,25.7,0,0,1,.11,9.09c-1.69,11.06-8.55,20.33-16.43,27.89l7.11,1.87c-.33-1.79-.73-3.51-1.23-5.26-.81-2.88-3.77-3.64-6.24-2.55-9.6,4.23-24.65,7.84-32.84-.71l-.86,6.68c9.77-4.39,15.6-15.89,18.37-25.76C428.56,440,420.36,437.72,418.88,443Z"/></g><path class="cls-5" d="M191.88,441.46l-.66.92c-.09.12.12.29.22.17l.69-.89a.16.16,0,1,0-.25-.2Z"/><path class="cls-5" d="M252.5,375c35.27,37.24,87.77,62.52,130.79,90.47l-1.83,2.37c-4.41,12.54-4.68,26.75,0,39.2,2.16,5.79,6.13,10.7,10,15.5l48.31,59.51c6.45,7.94,13,16,17.09,25.36a63.3,63.3,0,0,1-24.29-7.54c31.11,36.27,62.57,73.06,83.48,116,5.28,10.85,9.88,22.08,16.12,32.41,8.61,14.23,20.34,26.8,26,42.45a7.87,7.87,0,0,1,.57,5c-1,3-4.72,3.88-7.8,3.53-9.81-1.12-16.8-9.74-22.54-17.78C519,768.44,510,755,502.88,740.6c-7.25-14.66-13.73-31.63-28.45-38.74-.22,13.38,5.87,26.08,13.25,37.24s16.21,21.4,22.57,33.17c7.07,13.09,11.39,28.44,22.85,37.93,2.56,2.12,5.65,5.79,3.28,8.11a5.22,5.22,0,0,1-3.44,1.1c-15.42.87-30.23-7.59-40.46-19.16s-16.59-26-22.29-40.35-11-29-19.54-41.9c-5.08,6.26-3.13,15.43-.92,23.18q6.7,23.48,13.4,46.93a46.76,46.76,0,0,0,3.9,10.43c2.67,4.7,6.93,8.39,9.33,13.23l.17,2.14c8.16,11.54,16.68,24.16,16.41,38.29a5.07,5.07,0,0,1-.65,2.8c-1.05,1.49-3.23,1.53-5,1.27-14.64-2.14-26.25-13.64-34-26.22-15.49-25-19.75-55.08-26.28-83.76-.72-3.15-1.59-6.5-4-8.7s-6.8-2.46-8.49.3c-1,1.58-.78,3.57-.53,5.4,5.27,38.26,24.52,73,37.17,109.44.58,1.66,1.09,3.66,0,5-1.42,1.79-4.26,1.05-6.36.16-10.9-4.65-22.59-10-28.28-20.37a48.33,48.33,0,0,1-4.26-12.66c-6.06-26.62-8.14-54.71-20.83-78.88-1.36-2.58-3.87-5.52-6.6-4.48-2.21.84-2.71,3.69-2.85,6.05A381.1,381.1,0,0,0,384,815.72c.85,7.09,1.9,14.25,1,21.33a8.08,8.08,0,0,1-1.24,3.85c-2.58,3.51-8.21,1.55-11.53-1.28-7.84-6.67-12.63-16.38-15.14-26.37s-2.92-20.37-3.33-30.67Q352.63,753.8,351.5,725c-.12-2.92-.46-6.28-2.87-7.92s-5.73-.71-7.8,1.25-3.15,4.71-4.22,7.35a246.66,246.66,0,0,1-15.45,31.53c-1.51,2.61-3.14,5.26-5.54,7.09s-5.76,2.71-8.49,1.41c-5.08-2.43-4.6-9.7-3.48-15.23a282,282,0,0,0,5.57-55.9l.4.13c-.09-2.79-3.6-4.43-6.29-3.64s-4.58,3.11-6.2,5.39-3.24,4.73-5.74,6c-5,2.55-11.47-1.24-13.58-6.47s-1-11.18.59-16.58,3.75-10.8,3.68-16.44c0-1.5-.45-3.33-1.9-3.76-2-.58-3.31,1.85-4.54,3.49-3,4.06-9.39,4.46-13.75,1.87s-6.95-7.4-8.34-12.28c-1.71-6-1.76-12.94,1.92-18,1.18-1.63,2.72-3,3.55-4.85s.66-4.37-1.06-5.4-4.09.06-6.15.61c-5.59,1.5-11.78-2.15-14.07-7.47s-1.1-11.71,2.11-16.53,8.19-8.22,13.47-10.59l-.3-2.75c-6.75,4-16.7.84-19.88-6.35-3.79-8.57,1.7-18.28,7.56-25.6a5.62,5.62,0,0,0,1.42-2.63c.37-2.91-3.42-4.18-6-5.66-5.67-3.32-6.54-11.07-6.36-17.63.07-2.58.36-5.5,2.38-7.1,1.56-1.24,3.82-1.39,5.24-2.78,1.93-1.87,1.41-5.24-.27-7.34s-4.2-3.31-6.49-4.71c-5.08-3.13-9.56-7.88-10.66-13.75s2.16-12.72,8-14.16c2.42-.6,5.85-1,5.89-3.53,0-1.67-1.68-2.74-3.15-3.52a71.23,71.23,0,0,1-25-22.35,10.67,10.67,0,0,1-2.19-4.89c-.17-1.8.75-3.82,2.48-4.34,2.14-.65,4.85,1.08,6.52-.42,1.14-1,.86-2.91.13-4.27-2-3.64-6.19-5.49-8.62-8.84-4.52-6.22-1.2-15.41,4.56-20.5s13.33-7.53,20-11.34A62.64,62.64,0,0,0,249.3,375.9"/><path class="cls-6" d="M252.31,375.22c28.91,30.5,66,51.38,101.71,72.82,8.94,5.37,18.65,10.37,27,16.66,1.17.89,1.49,0,1.24,1.23-.07.38-.78.91-1,1.29a16.44,16.44,0,0,0-1.39,3.8,61.17,61.17,0,0,0-2.39,15.61c-.2,9.82,1.9,19.89,7.33,28.18,6.15,9.38,14,17.83,21.07,26.54q13.61,16.8,27.22,33.59c8.44,10.4,17.55,20.57,23.17,32.86l.61-1.07a65.93,65.93,0,0,1-23.93-7.44.72.72,0,0,0-.86,1.12c32.41,37.81,64.81,76.17,86.05,121.63,5.17,11.05,10.19,22.11,17,32.3,6.31,9.46,13.5,18.37,18.72,28.51,1.28,2.49,3.11,5.38,3.58,8.14,1,6.16-2.3,8.35-7.73,7.35-6.22-1.15-11.18-5.57-15.2-10.19-8.14-9.36-15-20.36-21.45-30.92-6.62-10.83-11.59-22.39-17.58-33.54-4.94-9.18-11.12-17.68-20.61-22.53a.81.81,0,0,0-1.21.7c.06,17.52,9.41,32.5,19.36,46.24,5.46,7.53,11.15,14.93,15.72,23,4,7.07,6.94,14.63,10.62,21.85a62.09,62.09,0,0,0,13.2,17.78,25.62,25.62,0,0,1,1.93,1.83c1.65,1.9,1.62,1.72,0,4s-1.4,2.07-3.86,2.06c-1,0-2.11,0-3.16-.15a45.18,45.18,0,0,1-14.77-4c-16.91-7.78-27.67-23.57-35.31-39.93-8.85-18.94-14.43-39.32-25.95-57a.84.84,0,0,0-1.43,0c-3.51,4.85-3.76,10.52-2.79,16.27,1.39,8.27,4.32,16.4,6.62,24.45l7.5,26.28c1.91,6.7,3.64,12.95,7.92,18.56,2.28,3,5.07,5.81,6.4,9.34.19.5,0,1.14.14,1.66.47,1.44,2.18,3.17,3,4.4,4.75,6.93,9.35,14.23,11.74,22.36a40.14,40.14,0,0,1,1.13,4.85c.56,3.34,1.21,5.74-1.24,8.13-1.95,1.9-2,1.77-4.41,1.33a29.27,29.27,0,0,1-2.94-.71,36.88,36.88,0,0,1-6.09-2.36c-6.83-3.31-12.59-8.63-17.33-14.48-21-25.95-24.4-61-32-92.28-1.05-4.31-2.85-9.36-7.81-10.25-4.17-.74-6.91,2-6.91,6.07,0,7.34,2.38,15.27,4.19,22.33,2,7.74,4.42,15.35,7.11,22.87,5.6,15.72,12.29,31,18.47,46.52,1.55,3.88,3.06,7.76,4.52,11.67.62,1.67,1.24,3.35,1.84,5A15.67,15.67,0,0,1,450.2,853l.4,1.3-3.33,3.48c-1.81.6-8.38-3.44-10.25-4.35a69.32,69.32,0,0,1-9.11-5.17c-14.62-10-15.9-28.08-18.86-44.19-2.94-15.95-5.77-32.09-11.71-47.25-1.89-4.84-4-12.73-8.74-15.6-3.41-2.08-6.44.21-7.31,3.69-1.86,7.45-1,16.5-1,24.13q0,13.17.82,26.31c.6,9.1,1.74,18.11,2.7,27.17.43,4.16,1.49,10.06.22,14.13-2.61,8.4-9.72,3.94-13.85-.36-12-12.55-14.3-30.75-15.1-47.32-.9-18.33-1.47-36.68-2.19-55-.18-4.78,1.11-13.5-3.06-17.17-3.39-3-8.18-1.11-10.74,2a25.54,25.54,0,0,0-3.45,6.66c-1.87,4.47-3.77,8.92-5.85,13.29-3.54,7.44-7.14,16.63-12.71,22.8-2.42,2.68-5.56,4.4-9.05,3-2.9-1.19-3.81-3.39-4-6.45-.26-3.74.72-7.44,1.41-11.08,1.57-8.35,2.76-16.78,3.58-25.24.87-9,1.27-18.07,1.29-27.13l-1.32,1,.4.13a1.05,1.05,0,0,0,1.28-1.28c-.79-3.78-4.69-5.41-8.2-4.12-6.08,2.22-7.58,12-14.67,11.9-12-.19-10.41-15.71-8.1-23.35,1.52-5,5.38-13.18,3-18.47-1.36-3-4.16-2.59-6.2-.55-3.12,3.11-4.65,5.62-9.61,5.19s-8.43-4.14-10.47-8.28a27.53,27.53,0,0,1-2.93-12.27c.06-4.88,2-8.19,4.81-12,1.91-2.61,3.88-7.21.09-9.37-2.87-1.63-6.22.85-9.15.86-5.34,0-10-4.29-11.19-9.28-2.77-11.11,6.88-19.52,15.82-23.72a1,1,0,0,0,.52-.89l-.3-2.75a1.05,1.05,0,0,0-1.56-.9,13.73,13.73,0,0,1-15.81-2.2c-5.53-5.33-4-13.49-.87-19.62a45.87,45.87,0,0,1,3.85-6.18c1-1.45,3.2-3.43,3.45-5.4.38-2.95-2.14-4.48-4.38-5.74-5.35-3-7.31-7.09-7.79-13.12a34.58,34.58,0,0,1,0-6c.48-5.12,4.52-5.06,7.25-7.83,6.84-6.94-6.79-13.1-10.41-16.17-4.73-4-8.32-10.15-6.34-16.46a10.39,10.39,0,0,1,6.83-7.07c1.65-.52,3.55-.59,5-1.67,6.39-4.88-7.43-10.42-10.16-12.41a70.53,70.53,0,0,1-12.18-11.3,45.78,45.78,0,0,1-5-6.68l-1.06-2.19q.6-5.91,5.05-4.19a5.67,5.67,0,0,0,1.84-.05c7.9-2.59-2.95-11.27-5.08-13.35-5.82-5.71-3.77-14.14,1.26-19.65,4.51-4.92,11-7.42,16.87-10.32a66.16,66.16,0,0,0,25.44-22.38c.76-1.1-1-2.13-1.78-1a67.32,67.32,0,0,1-12.64,14.05c-5.48,4.51-11.75,7.31-18,10.47-8.34,4.21-17.35,11-16.83,21.47.21,4.11,2.28,7.11,5.28,9.78,1.3,1.16,6.17,4.41,5.92,6.51-.4,3.47-5.86,1.56-7.77,3.07-6.82,5.42,6,17.32,9.45,20.67A72.8,72.8,0,0,0,226,471c2.34,1.46,9.57,4.66,3.9,7.06-2.08.88-3.92.85-5.82,2.23-7.3,5.29-6.21,15.55-1.14,21.88,3.48,4.33,8.58,5.82,12.38,9.6l2.08,3.13c.05,3.28-1.35,5.17-4.22,5.66a8.14,8.14,0,0,0-1.52.86,8,8,0,0,0-2.66,5.09c-1.33,7.56.09,17.47,7.13,21.71a25,25,0,0,1,2.6,1.4c3.17,2.38.76,5.07-.86,7.72a67.61,67.61,0,0,0-4.89,8.34c-2.11,4.9-3.07,10.5-.85,15.54,3.57,8.1,13.82,11,21.41,7l-1.56-.89c0,.48.48,2.09.26,2.46s-3.86,1.68-4.35,2a29.79,29.79,0,0,0-7.87,6.88c-3.9,5-5.78,12-3.56,18.08a14.16,14.16,0,0,0,11.29,9.21,11.82,11.82,0,0,0,3,0,16.14,16.14,0,0,1,2.87-.74c7.92,1.16,3.46,5.3,2,7.2a18.75,18.75,0,0,0-4,8.73c-1.72,10.48,4.61,27.48,17.6,26.06a10.62,10.62,0,0,0,5.82-2.4c.65-.55,1.52-2.26,2.22-2.59l1.87.4q2.71-.39,1.83,2.08c.31,1.55-.56,4-.93,5.52-1.82,7.44-5.57,14.88-4.19,22.73,1,5.62,5.26,10.87,11.25,11.35a9.41,9.41,0,0,0,7.23-2.67,23.54,23.54,0,0,0,2.85-3.45A37,37,0,0,1,299.6,695c1.75-1.87,7.67-6.42,9,0l1.28-1.28-.4-.13a1.05,1.05,0,0,0-1.32,1c-.05,19.26-2.54,37.9-5.75,56.84-.7,4.1-1.24,9.29,1.43,12.86,3,4.07,8.62,3.64,12.4.83,5.67-4.22,8.9-12.67,12-18.74,3.93-7.65,6.81-15.79,10.65-23.46a16.94,16.94,0,0,1,1-1.87l1.61-2,7.8.31c1.31,1.34,1.09,4.92,1.17,6.62.22,5,.39,9.93.59,14.89l1.1,27.8c.66,16.8,0,34.7,5.7,50.77a51.75,51.75,0,0,0,9.78,17.1c3.17,3.56,8.08,8.16,13.35,7.11,5.51-1.09,5.3-8.09,5.3-12.43,0-9.38-1.85-18.79-2.66-28.13s-1.28-18.81-1.4-28.23q-.07-6.82.08-13.66c.05-2.27.13-4.54.22-6.82s-.4-5.93.48-7.9l.14-1.08,5.17-1.88c.73.24,1.8,2.38,2.15,3a50.62,50.62,0,0,1,2.31,4.67,122.75,122.75,0,0,1,5.22,13.46,217.78,217.78,0,0,1,6.17,24.43c1.68,8.3,3.1,16.65,4.72,25,1.46,7.5,2.61,15.58,5.93,22.52,5.47,11.44,18.65,18.54,30.17,22.5,3.48,1.2,7.69.91,7.66-3.7,0-3.1-2-6.77-3.07-9.6-1.55-4.19-3.17-8.36-4.82-12.51-6.29-15.77-13.14-31.34-18.87-47.33-2.89-8.08-5.49-16.26-7.56-24.58q-1.5-6-2.6-12.13a53.3,53.3,0,0,1-1.1-7.31c-.21-5.75,6.42-6.06,9.23-1.73,2,3.16,2.52,7.83,3.31,11.43.94,4.25,1.83,8.5,2.74,12.76,1.76,8.22,3.55,16.45,5.71,24.58,4,15.17,9.38,30.29,18.06,43.48,7.27,11.06,17.7,21.37,31,24.24,4.49,1,8.57.86,9-4.46.53-6.71-2-13.82-4.79-19.77-3.27-6.92-9.06-13-11.74-19.95-2.28-5.89-7.43-10.07-10.24-15.77-4-8.15-5.68-18-8.17-26.65l-7.5-26.28c-2.34-8.2-5.48-17.76,0-25.36h-1.43c20.38,31.2,23.72,78.45,60.42,96.78,6.78,3.38,16.14,6.48,23.83,4.91,5.06-1,4.23-5.51,1.42-8.65-3.13-3.51-6.65-6.16-9.42-10.07a83.53,83.53,0,0,1-6.82-12c-4.11-8.47-7.75-17.07-12.87-25-12.61-19.56-31.16-37.66-31.26-62.51l-1.21.7c10.87,5.55,17.13,16,22.4,26.54,5.72,11.47,11.27,22.82,18.19,33.65,6.46,10.11,13.12,21.43,21.86,29.8,4.63,4.44,15.5,11.59,21.6,5.62,2.84-2.77,1.2-6.76-.08-9.91a91.89,91.89,0,0,0-8.28-15.46c-7.1-11-15.23-21.12-21.29-32.74s-11.14-24-17.45-35.65a364.07,364.07,0,0,0-21.68-34.88c-17.16-24.6-36.71-47.4-56.21-70.13l-.87,1.12a68.15,68.15,0,0,0,24.65,7.63c.59.06.81-.64.61-1.07-5.41-11.8-14.05-21.61-22.16-31.6l-28.52-35.07-13.64-16.77c-5-6.2-9.88-12.24-12.22-20a55.74,55.74,0,0,1-2.11-20.47c.48-5.83,1.31-12.62,5-17.36a.57.57,0,0,0-.2-.78c-44.34-28.65-93.84-51.67-130.89-90.17-.24-.26-.62.13-.38.38Z"/><path class="cls-7" d="M261.26,621.34c6.3-13.16,18.1-23.08,31.12-29.65s27.34-10.12,41.58-13.34"/><path class="cls-7" d="M261.39,621.42a71,71,0,0,1,29.24-28.07c13.7-7.27,28.68-10.35,43.57-14.11,1.17-.29.67-2-.49-1.79-27,5.49-60.54,16.26-72.58,43.81-.08.18.16.33.26.16Z"/><path class="cls-7" d="M281.59,658.77c12.84-22.75,27.25-46.17,50-59"/><path class="cls-7" d="M281.84,658.92c6.85-10.93,13.06-22.17,21-32.4a120.62,120.62,0,0,1,12.7-14.12c5.05-4.74,10.81-8.15,16.3-12.25a.48.48,0,0,0-.49-.83c-11.46,5-21.34,16.21-28.85,25.84a207.18,207.18,0,0,0-21.14,33.47.29.29,0,0,0,.5.29Z"/><path class="cls-7" d="M317.45,674.53c8.66-21.51,18-43.95,36-58.73"/><path class="cls-7" d="M317.57,674.6c5.22-10.13,9.16-20.85,14.77-30.81a107.46,107.46,0,0,1,21.9-27.17c1.12-1-.49-2.51-1.62-1.63-9.11,7.07-16,17.18-21.47,27.19a169.72,169.72,0,0,0-13.84,32.31.14.14,0,0,0,.26.11Z"/><path class="cls-7" d="M246.3,554.28c10.55,1.51,21.14-1.68,31.76-2.61,16.55-1.45,33,2.64,49.15,6.69"/><path class="cls-7" d="M246.25,554.46c12.54,2.95,25.85-2.15,38.49-2.19,14.51,0,28.2,3.91,42.24,6.89a.83.83,0,0,0,.45-1.6c-12.84-3.73-26.44-6.66-39.83-7-13.9-.4-27.38,3.62-41.3,3.59a.18.18,0,0,0-.05.36Z"/><path class="cls-7" d="M255.29,588.21c4.3-.26,8-2.86,11.74-5.07,18.92-11.3,41.65-13.82,63.58-16.09"/><path class="cls-7" d="M255.29,588.39c5.63,0,10.23-3.82,15-6.38a96.22,96.22,0,0,1,20.18-7.87c13.26-3.63,26.81-4.35,40.31-6.5.68-.11.52-1.23-.16-1.19a192.46,192.46,0,0,0-38.86,6,103.56,103.56,0,0,0-17.59,6.22c-6.41,3-12,7.6-18.92,9.38a.18.18,0,0,0,0,.35Z"/><path class="cls-7" d="M240.69,516a408.87,408.87,0,0,1,82.88,23.82"/><path class="cls-7" d="M240.67,516.09c14,3.5,28.05,6.37,41.89,10.39s27.22,9.23,40.83,14c.74.26,1.27-.95.54-1.28-13.08-6-27.17-10.3-41-14.23s-28-7.51-42.28-9.06c-.08,0-.09.12,0,.14Z"/><path class="cls-7" d="M239.69,482c26.1,11.8,54.56,19.8,76.82,37.82"/><path class="cls-7" d="M239.53,482.27c13,6.19,26.43,11.25,39.6,17a219,219,0,0,1,37,21.14c.65.45,1.42-.56.84-1.08-10.46-9.57-24.17-15.89-37.05-21.47-13.25-5.74-26.87-10.56-40.18-16.17-.32-.13-.55.41-.24.56Z"/><path class="cls-7" d="M214.85,437.19a275,275,0,0,1,88.59,53.4"/><path class="cls-7" d="M214.84,437.21c15.58,6.91,31.07,13.89,45.7,22.71,15.15,9.14,28.8,19.91,42.49,31.08.56.46,1.35-.29.81-.81-12.34-12.07-27-22.33-41.77-31.18s-30.6-16.82-47.21-21.85c0,0-.05,0,0,0Z"/><path class="cls-7" d="M234.43,398.47q36.57,31.39,70.21,66"/><path class="cls-7" d="M234.24,398.66c23.7,21.73,46.72,44,69.75,66.47.85.84,2.11-.43,1.31-1.31a664.06,664.06,0,0,0-70.68-65.54c-.26-.22-.64.14-.38.38Z"/><path class="cls-7" d="M348.47,710.92A318.86,318.86,0,0,1,371.65,636"/><path class="cls-7" d="M348.73,711c3.7-12.54,6-25.45,9.94-38s9.07-24.55,13.79-36.79c.35-.89-1.11-1.5-1.54-.65-6,11.7-10.27,24.39-14.1,36.93-3.78,12.34-7.68,25.45-8.62,38.38,0,.31.45.36.53.08Z"/><path class="cls-7" d="M383.49,645.17c-3,13.9-6,27.88-6.59,42.09s1.35,28.81,7.76,41.36"/><path class="cls-7" d="M383.23,645.1c-4.83,13.94-7.29,30.11-7.6,44.83-.27,12.52.84,28.54,8.26,39.14.55.77,1.95.33,1.63-.69-1.95-6.21-4.58-12-5.85-18.4a98,98,0,0,1-1.61-21.83c.46-14.6,4.39-28.54,5.7-43,0-.32-.44-.34-.53-.07Z"/><path class="cls-7" d="M401.73,643c-2,17.72.84,35.59,3.7,53.16,1.62,10,3.63,20.75,10.71,27.63"/><path class="cls-7" d="M401.3,642.9c-2.77,15.52-.43,31.55,2,47,1.67,10.79,2.54,27.72,12.44,34.69.72.51,1.67-.49,1.2-1.2-3.5-5.35-6.43-9.87-8.08-16.19-1.62-6.17-2.5-12.56-3.5-18.86a237.86,237.86,0,0,1-3.14-45.3c0-.49-.79-.62-.88-.12Z"/><path class="cls-7" d="M424.2,655.65,427,669.56c1.42,7.14,2.86,14.36,5.66,20.88,2.95,6.85,7.3,12.68,11.61,18.44"/><path class="cls-7" d="M423.75,655.65c1.53,19.54,6.76,38.92,19.64,54.06.87,1,2.59-.31,1.86-1.43-5.34-8.18-11-15.36-13.87-24.88-2.81-9.15-3.8-18.77-6.75-27.87-.15-.46-.92-.41-.88.12Z"/><path class="cls-7" d="M446.24,647.84a339.91,339.91,0,0,0,24.18,46"/><path class="cls-7" d="M445.76,648c1.74,8.34,6.73,16.53,10.66,24s8.11,15.59,13.45,22.36c.58.75,1.59-.2,1.23-1-3.74-7.75-8.51-15-12.53-22.66s-7-16.2-11.91-23.15a.5.5,0,0,0-.9.38Z"/><path class="cls-5" d="M177.36,443.58c42.74-28.38,88.25-34.47,146.05-50.93l6.7-3.57c-1.48-13.21-4.8-34.14,2.54-45.23,3.41-5.16,8.37-9.05,13.25-12.85l60.43-47.15c8.06-6.29,16.23-12.68,22.35-20.88a63.51,63.51,0,0,0-25.36,1.89c38.46-28.36,77.37-57.15,107.39-94.32,7.59-9.39,14.58-19.3,23-28,11.58-12,25.83-21.56,34.84-35.54a8,8,0,0,0,1.67-4.74c-.26-3.08-3.73-4.84-6.81-5.19-9.81-1.11-18.56,5.72-26,12.26-12.05,10.67-23.84,21.71-34,34.17C493.06,156.2,482.94,171.28,467,174.9c2.79-13.08,11.58-24.1,21.28-33.31s20.59-17.21,29.43-27.26c9.84-11.17,17.49-25.15,30.79-31.83,3-1.49,6.8-4.37,5-7.17a5.2,5.2,0,0,0-3.1-1.84c-14.83-4.3-31.16.61-43.73,9.59s-22,21.6-30.77,34.31-17.23,25.85-28.46,36.45c-3.54-7.24.42-15.74,4.32-22.8l23.59-42.72A46.39,46.39,0,0,1,481.49,79c3.66-4,8.64-6.62,12.06-10.81l.64-2c10.55-9.41,21.68-19.79,24.59-33.62a5,5,0,0,0,0-2.87c-.68-1.7-2.8-2.23-4.62-2.37-14.74-1.2-28.64,7.39-39.06,17.9-20.71,20.89-31.6,49.24-44.41,75.72-1.41,2.92-3,6-5.81,7.59s-7.18.87-8.21-2.2c-.59-1.75,0-3.65.7-5.38,13.73-36.1,40.27-65.58,60.79-98.3.93-1.49,1.88-3.32,1.12-4.91-1-2.07-3.91-2-6.17-1.58-11.66,2.08-24.24,4.65-32.12,13.5A48.47,48.47,0,0,0,434,41c-11.88,24.57-20.21,51.49-38,72.19-1.91,2.21-5,4.51-7.44,2.89-2-1.32-1.81-4.21-1.42-6.54a382,382,0,0,1,17.3-65.93c2.42-6.72,5.05-13.46,5.78-20.56a8.07,8.07,0,0,0-.34-4c-1.72-4-7.65-3.35-11.52-1.34-9.14,4.75-16,13.13-20.67,22.3s-7.43,19.2-10.13,29.14Q360,97,352.4,124.75c-.77,2.82-1.86,6-4.58,7.08s-5.74-.6-7.32-3-2-5.29-2.46-8.1a245.91,245.91,0,0,0-8-34.2c-.9-2.88-1.88-5.82-3.81-8.15s-5-3.93-8-3.28c-5.5,1.23-6.66,8.42-6.81,14.06a282,282,0,0,1-7.12,55.72l.42,0c-.71,2.71-4.51,3.51-6.94,2.15s-3.78-4.07-4.84-6.65-2.1-5.34-4.25-7.13c-4.33-3.61-11.45-1.36-14.69,3.26s-3.51,10.66-3.14,16.29,1.23,11.36-.11,16.84c-.36,1.46-1.19,3.15-2.69,3.24-2.05.12-2.81-2.54-3.64-4.42-2-4.64-8.15-6.46-13-4.91s-8.43,5.66-10.88,10.09c-3,5.47-4.63,12.22-2.18,18,.79,1.85,2,3.55,2.38,5.52s-.34,4.41-2.25,5-4-1-5.85-2c-5.11-2.72-12-.54-15.39,4.12s-3.7,11.16-1.66,16.58,6.14,9.85,10.75,13.35l-.9,2.62c-5.68-5.44-16.09-4.58-20.8,1.71-5.62,7.51-2.45,18.2,1.62,26.65a5.66,5.66,0,0,1,.79,2.88c-.29,2.92-4.27,3.31-7.07,4.18-6.27,2-8.85,9.32-10.16,15.76-.51,2.53-.88,5.43.73,7.45,1.24,1.55,3.41,2.21,4.48,3.88,1.46,2.26.2,5.43-1.91,7.09s-4.83,2.28-7.38,3.14c-5.66,1.91-11.08,5.53-13.48,11s-.74,12.89,4.58,15.59c2.22,1.12,5.47,2.33,4.95,4.76-.34,1.63-2.25,2.29-3.86,2.73a71.08,71.08,0,0,0-29.36,16.17,10.76,10.76,0,0,0-3.23,4.27c-.57,1.71-.13,3.89,1.44,4.78,1.94,1.11,5,0,6.26,1.87.88,1.26.19,3-.83,4.19-2.73,3.11-7.27,4-10.39,6.68-5.8,5.05-4.62,14.76-.15,21s12.27,10.55,13.29,18.17c1.41,10.6,10.4,20.89,18.85,26.48"/><path class="cls-6" d="M177.5,443.81c23.85-15.57,50.53-25.16,77.86-32.69,14.29-3.94,28.71-7.44,43.06-11.15,11-2.84,21.95-5.05,32-10.4a.52.52,0,0,0,.28-.49c-1.32-11.75-3.41-24.09-1-35.84,3-14.58,18.19-23,29.09-31.45l38.77-30.19c11.15-8.7,23.06-17,31.76-28.27.37-.48-.15-1-.61-1.06a67.34,67.34,0,0,0-25.55,1.91l.55,1.3c21-15.46,42-31,61.74-48a397.1,397.1,0,0,0,54.22-57.13,217.62,217.62,0,0,1,26.78-28.68c8.21-7.34,18.86-15.52,23.66-25.76,4-8.57-7.27-10.52-13.27-9.24-11.66,2.5-21.19,13.07-29.57,20.83a290.86,290.86,0,0,0-29.58,31.91c-8.34,10.43-17.37,21.29-30.88,24.68l1,1c4.77-20.47,21.77-33.67,36.77-46.85a153.75,153.75,0,0,0,20.11-21.18c5.73-7.38,11.36-15.24,19.05-20.73,2.87-2.06,13.51-5.84,10.59-11.24-1.11-2.07-4-2.57-6.07-3a43.57,43.57,0,0,0-14-.74c-18.23,1.94-33.31,13.38-44.9,26.9-15.1,17.63-25.58,38.81-42.42,55l1.38.37c-3.87-9.28,2.21-18.5,6.59-26.43l13.69-24.78c4.36-7.9,8.17-17.54,14.69-23.94,2.71-2.66,6-4.69,8.71-7.3,1.79-1.7,2.18-3.19,3.51-5,2.11-2.78,5.59-5.08,8.09-7.57a84,84,0,0,0,7.87-8.88c3.72-4.93,7.73-11.39,8.3-17.72,1-11.54-22.35-3.28-27.12-.9-27.74,13.87-42.37,46.1-54.8,72.71-3.2,6.84-5.84,15.46-10.62,21.35-1.48,1.82-2.43,2.52-4.77,2.84l-2.05.28-2.58-5.82c0-1.72,1.67-4.38,2.32-6q2.6-6.21,5.65-12.2c7.59-14.92,17-28.81,26.63-42.48,4.76-6.76,9.59-13.48,14.31-20.27,4.33-6.22,10-12.8,13-19.76,5.41-12.35-20.29-3.87-24.34-2.42-5.93,2.14-11.51,5.31-15.61,10.18-4.88,5.78-7.78,13.22-10.84,20-6.62,14.77-12.5,29.93-20.55,44-1.92,3.36-4,6.65-6.15,9.83q-1.84,2.69-3.86,5.25c-.82,1.06-1.65,2.13-2.53,3.14-1.37,1.57-6.24,7.28-7.95.13-.39-1.62.56-4.28.86-5.91q.66-3.73,1.41-7.45,1.39-7,3-13.89,3.19-13.36,7.34-26.49c2.7-8.51,6.12-16.8,8.65-25.36,1.24-4.21,4.36-12.75.08-16.31-3.39-2.82-8.66-1.22-12.09.61-13,6.94-20.67,20.79-25.4,34.23C365.6,69,361.52,87.39,356.64,105.31L353,118.73c-.58,2.12-1.09,4.27-1.74,6.36a11.35,11.35,0,0,1-1,2.78q-.9,2.72-4.36,1.24c-2.61,1.21-4.2.64-4.79-1.73-2.18-4-2.35-8.88-3.17-13.28S336.11,105,335,100.54c-1.75-7.16-3-16.79-7.86-22.66-2.89-3.52-7.95-5.33-11.91-2.45-3.77,2.75-4.48,8.2-4.74,12.52-.54,9.14-.87,18.23-2,27.34a288.35,288.35,0,0,1-5.16,29.33,1.05,1.05,0,0,0,1,1.32l.42,0-.9-1.57c-2.85,6.16-8.13-.5-9.42-3.21-.71-1.49-1.23-3.06-2-4.53A10.71,10.71,0,0,0,287,131c-4.89-1.88-10.69.71-13.65,4.74-4,5.4-3.78,12.56-3.32,18.91.18,2.51.45,5,.48,7.54a35.67,35.67,0,0,1-.12,3.73c-.23,2.36.12,3.31-2.35,3.7-2.75.44-2.07-1.07-3.23-2.82a10.18,10.18,0,0,0-2.49-2.58c-11.75-8.55-23.69,6.76-25.68,17.23a19.07,19.07,0,0,0,.29,8.95c.39,1.33,1.12,2.47,1.63,3.75.44,1.13,1.49,3.91,1.21,5.12-.88,3.8-6.14.05-7.71-.55-4.61-1.79-10-.37-13.64,2.85-5,4.46-6,12-4.19,18.18a26.74,26.74,0,0,0,5.65,9.83c1.34,1.54,3.41,2.76,4.58,4.38l.89.24-.23.64c.12.15-.53,1.53-.58,1.7l1.73-.46c-6.08-5.25-15.83-5.27-21.48.77a16.71,16.71,0,0,0-4.12,11,28.78,28.78,0,0,0,1,7.62c.75,3,2.57,5.89,3.21,8.88,1.53,7.13-6,6.08-9.76,9.76-3.3,3.2-4.88,7.94-5.87,12.31-.91,4-1.36,7.69,1.77,10.76,2.06,2,5.07,2,3.12,6.64-.76,1.78-3.91,3.18-5.43,3.75-3,1.13-6,1.92-8.82,3.58-7.47,4.44-12.86,14-7.45,22.2a11.34,11.34,0,0,0,2.94,3c.93.65,2.29.94,3.13,1.66,2.53,2.15-.33,4-2.33,5.05-2.45,1.32-5.6,1.87-8.19,3a71.8,71.8,0,0,0-9,4.69c-3.68,2.25-21.17,12.93-12.79,18.81,1.56,1.1,3.43.29,5,1.09,4.49,2.36-1.3,4.93-2.52,5.86a28.18,28.18,0,0,1-3.7,1.92c-4.4,2.41-7.28,5.79-7.83,10.91a20.72,20.72,0,0,0,3.83,13.76c3.35,4.83,8.68,8.11,11.57,13.27,1.84,3.29,1.85,7.15,3.19,10.65a37.23,37.23,0,0,0,3.88,7.36,52,52,0,0,0,13.87,13.74c1.09.75,2.13-1,1-1.78a49.65,49.65,0,0,1-13.13-13,34,34,0,0,1-4.2-8.36c-.91-2.72-1-5.63-2.17-8.26-4-8.87-14.18-12.78-15.69-23.19-1-7.28,2.5-11.12,8.54-14.26,2.49-1.29,6.25-3.24,6.69-6.43.4-2.86-1.48-3.9-3.94-4.34-3-.54-2.09.62-3-2.71-.82-3-.26-3.2,1.85-5.28a57,57,0,0,1,9.15-7.07,70.2,70.2,0,0,1,16.52-7.87c2.43-.79,7.28-1.26,7.84-4.55.4-2.37-1.58-3.75-3.4-4.79-6.2-3.52-9.36-9.62-5.59-16.51,3.24-5.93,9.37-8,15.29-10.19,3.44-1.27,7.26-3.32,7.54-7.48.2-2.87-1.39-3.86-3.27-5.63-4.95-4.63-2-14.22,1.58-19.14,2.34-3.22,5.25-3.82,8.68-5a7.51,7.51,0,0,0,3.47-2c2.66-3.19-1.15-8.05-2.23-11-2.4-6.62-4-15.26,1.28-21,4.79-5.22,13.33-5.27,18.54-.77a1.06,1.06,0,0,0,1.74-.46l.9-2.61a1,1,0,0,0-.26-1c-6.37-5-12.14-11.87-11.7-20.46.23-4.55,2.33-9,6.38-11.36a11.53,11.53,0,0,1,7-1.52c2.54.28,4.08,1.75,6.37,2.59,3.52,1.29,6.66-.42,6.77-4.39.08-2.6-1.58-4.88-2.51-7.19-1.89-4.7-1.16-9.68.78-14.27,3.07-7.26,11.9-17.15,20.52-11.21,2.54,1.74,4.15,10,8.65,7.86,4.14-2,3.24-10.8,3-14.15-.45-7.79-2.45-18.12,4.1-24.09,4.69-4.29,11.27-3.28,14.14,2.37,1.41,2.77,2.18,6,4.31,8.34,3,3.29,8.59,3.93,10.68-.6.3-.65,0-1.64-.9-1.57l-.42,0,1,1.32a287.93,287.93,0,0,0,7.06-53.1c.13-3.38.08-6.86,1.07-10.14,2.53-8.38,10.93-6.29,14.07.75,3.41,7.67,5.14,16.53,6.92,24.7q1.36,6.33,2.42,12.72c.53,3.21.9,6.75,2.87,9.47,2.55,3.51,7.44,5,10.73,1.6,1.59-1.63,2.25-4,2.87-6.15,1.31-4.45,2.44-9,3.66-13.42l7.3-26.85c4.6-16.89,8-35.4,17.7-50.27,4.29-6.57,10.39-13.31,17.83-16.32,1.59-.65,4.77-1.73,6.48-.82s2.73,4.15,2.85,5.74a17.33,17.33,0,0,1-.65,4.13A89.84,89.84,0,0,1,404.67,40a413.42,413.42,0,0,0-14.89,50.69q-1.42,6.48-2.63,13c-.54,3-1.68,6.44-1.19,9.51.64,4.07,4.2,5.35,7.64,3.34,5.26-3.06,9.41-10.54,12.6-15.52A182.92,182.92,0,0,0,417.33,80.6C424.14,66.23,429.41,51,437.11,37c4.28-7.74,10.52-12.71,18.77-15.73A75.08,75.08,0,0,1,466,18.5c2.87-.62,14-3.87,11.88,2.58-1.14,3.38-4.15,6.74-6.11,9.69-2.36,3.56-4.78,7.08-7.22,10.59-4.56,6.56-9.21,13-13.8,19.59-9.29,13.21-18.38,26.64-25.81,41-3.27,6.34-7,13.18-8.9,20.09-1.13,4,.44,7.83,5,8.16,5.09.36,8-4.18,10.05-8.19,3.48-6.94,6.62-14.05,9.91-21.08,6.71-14.3,13.73-28.59,23.06-41.4C473.54,46.55,486,33.6,502,29.31c2.88-.77,9.12-2.45,12.15-1.16,1.3.56,3.61,3.78,3.64,5a8.25,8.25,0,0,1-.6,2.25,37.93,37.93,0,0,1-2.9,6.89c-3.83,7.13-9.54,13.07-15.41,18.55-1.76,1.66-4.12,3.21-5.49,5.17-.46.66-.55,1.6-1,2.31-1.16,1.73-3.11,3-4.72,4.34a50.64,50.64,0,0,0-13.49,16.14q-6.86,12.39-13.68,24.78c-4.19,7.58-8.93,15.07-12.43,23-2.51,5.69-3.88,11.61-1.4,17.54a.83.83,0,0,0,1.38.36c26-25,39-67.28,75.89-79.19a49.78,49.78,0,0,1,13.52-2.47,41.75,41.75,0,0,1,6.42.27,37.83,37.83,0,0,1,3.93.64c.8.17,1.6.37,2.39.61l.18,6.16c-.65,1.09-3.18,1.81-4.3,2.45a42.31,42.31,0,0,0-4.48,3,60.58,60.58,0,0,0-8.34,7.91c-5.36,6-9.88,12.67-15.1,18.77-5.84,6.81-12.6,12.69-19.37,18.54-13.86,12-28.24,25-32.56,43.56a.82.82,0,0,0,1,1c19.89-5,30.58-25.13,43.43-39.3A334.85,334.85,0,0,1,538,109.93c4.12-3.62,8.4-7.24,13.37-9.64a22.24,22.24,0,0,1,10.41-2.51c4.67.16,8.83,1.77,6.09,8.87-.68,1.75-2.67,3.87-3.74,5.22-6.91,8.72-15.61,15.75-23.77,23.23-8.75,8-16.19,17-23.46,26.36A376.07,376.07,0,0,1,468.38,213c-20.81,18.32-43.13,34.81-65.42,51.26a.71.71,0,0,0,.55,1.3,66.79,66.79,0,0,1,25.17-1.87l-.61-1.06c-7.84,10.18-18.38,17.73-28.43,25.57L367.89,313c-10.05,7.86-21,15.24-30.23,24.05-6.68,6.37-9.49,13.75-10.06,22.86a99.3,99.3,0,0,0,.33,14.53c.19,2.34.44,4.69.71,7,.18,1.58,1.44,5.48.9,6.81s-4.33,2.94-5.92,3.63c-5.54,2.38-12,3.47-17.85,5-21.63,5.75-43.46,10.79-64.85,17.38-22.46,6.92-44.06,16-63.7,29.05-.28.19,0,.65.28.46Z"/><path class="cls-7" d="M241.19,205.52c3.18,14.24,12.45,26.55,23.67,35.88s24.37,16,37.52,22.33"/><path class="cls-7" d="M241,205.56c5.54,29.52,35.75,47.59,60.87,59,1.07.49,2-1,.94-1.6-13.42-6.89-27.13-13.12-38.71-23-10.82-9.24-18.78-20.75-22.81-34.44-.05-.19-.32-.11-.29.08Z"/><path class="cls-7" d="M270.73,178c7.4,25,14.87,46.7,34.13,64.34"/><path class="cls-7" d="M270.44,178.1a179.11,179.11,0,0,0,12.75,35.82c5,10.25,12.09,22,21.43,28.86.46.34.91-.37.58-.76-4.21-4.94-8.9-9.19-12.7-14.54a104.23,104.23,0,0,1-8.67-14.79c-5.44-11.18-8.74-23.06-12.82-34.75a.3.3,0,0,0-.57.16Z"/><path class="cls-7" d="M303,153.16c4.9,31.65,10.6,60.61,30,86.06"/><path class="cls-7" d="M302.84,153.16c2.51,29.62,10.21,63.32,29.37,86.87.81,1,2.54-.32,1.8-1.39-9-12.91-16.1-26.06-20.82-41.14-4.56-14.54-6.69-29.56-10.07-44.38a.14.14,0,0,0-.28,0Z"/><path class="cls-7" d="M211.56,267.51c10.62.89,20.22,6.39,30.36,9.67,15.81,5.13,32.78,4.85,49.4,4.51"/><path class="cls-7" d="M211.51,267.69c13.44,3.08,25.58,9.9,39.07,12.68,13.22,2.72,27.29,2.93,40.74,2.15a.83.83,0,0,0,0-1.66c-14.45-.26-28.75.56-43-2.81-12.23-2.9-24-10.85-36.8-10.73a.19.19,0,0,0-.05.37Z"/><path class="cls-7" d="M231.15,239.13c2.81,3,4,1.93,7.08,4.91,15.91,15.26,37.49,22.82,58.35,29.94"/><path class="cls-7" d="M231,239.26c1.46,1.8,2.79,2.29,4.68,3.48,3,1.91,5.5,4.92,8.31,7.12a103.57,103.57,0,0,0,16,10.21,191.3,191.3,0,0,0,36.38,14.5c.77.22,1-.89.32-1.17-12.3-5-24.95-8.63-36.77-14.84A99.36,99.36,0,0,1,243.61,248c-2.14-1.73-4.06-3.87-6.33-5.43-1.95-1.34-4.11-2.12-6-3.54-.18-.13-.33.13-.22.28Z"/><path class="cls-7" d="M202.31,303.72c28.76,1.5,52.88-.23,81.31-4.8"/><path class="cls-7" d="M202.31,303.79c13.75,1.71,27.87,1.38,41.68.51,13.24-.83,26.79-2.07,39.82-4.7.76-.15.6-1.47-.19-1.38-13.53,1.58-26.91,3.74-40.53,4.61s-27.18.49-40.78.82a.07.07,0,0,0,0,.14Z"/><path class="cls-7" d="M188.89,336.45c28.09-5.64,57.61-7.05,83.36-19.61"/><path class="cls-7" d="M189,336.74c14.49-2.51,29.11-4.16,43.56-6.87,13.52-2.54,28-5.61,40.07-12.44.66-.37.21-1.56-.54-1.26a219.2,219.2,0,0,1-40.83,12.28c-14.13,2.67-28.37,4.59-42.42,7.71-.39.08-.22.65.16.58Z"/><path class="cls-7" d="M159.81,373.34c34.41-4.38,62.79-14.14,93.13-30.94"/><path class="cls-7" d="M159.81,373.36c32.16-2.07,66-13.62,93.42-30.47a.57.57,0,0,0-.58-1c-15.05,7.38-29.8,14.79-45.75,20.13-15.38,5.16-31.21,8.15-47.1,11.28,0,0,0,.05,0,.05Z"/><path class="cls-7" d="M165,416.68q42.67-22.4,83.23-48.56"/><path class="cls-7" d="M165.15,416.91a664.65,664.65,0,0,0,83.57-48c1-.67.1-2.23-.93-1.6-27.49,16.69-54.93,33.27-82.91,49.13-.3.17,0,.61.27.46Z"/><path class="cls-7" d="M346.41,138.59a333.48,333.48,0,0,0,5.45,80"/><path class="cls-7" d="M346.15,138.52c-2,13.12-1.24,27-.39,40.25.86,13.37,2.14,27,5.29,40.07.26,1.09,1.77.59,1.62-.45-1.84-13.53-4.11-26.92-5.05-40.57-.91-13.08-.22-26.17-.94-39.23,0-.28-.48-.38-.53-.07Z"/><path class="cls-7" d="M367,210.81c.75-16.29,1.51-32.67,5.09-48.58s5.51-25.65,16.6-37.6"/><path class="cls-7" d="M367.28,210.88c1.35-8.06,1.36-16.37,2.2-24.5a220.17,220.17,0,0,1,4.32-26.16c1.38-6,2.72-12.16,5-17.94,2.57-6.54,6.88-11.44,10.69-17.2.6-.9-.66-1.67-1.4-1.08-10.05,8.14-13.58,22.07-16.27,34.06-3.78,16.9-6.35,35.41-5.06,52.75,0,.28.48.39.53.07Z"/><path class="cls-7" d="M389.36,206.57c2.11-19.2,4.29-28.87,11.77-46.67,4.26-10.14,15.57-25,15.92-24.59"/><path class="cls-7" d="M389.79,206.69c2.84-14.87,5.29-29,11.07-43.14a98.57,98.57,0,0,1,9.66-17.73c1.48-2.2,3-4.36,4.62-6.47.49-.65,2.88-3.31,2.14-3.2,1.12-.17.64-1.86-.46-1.69-2.52.39-5,5.31-6.26,7.1a99.66,99.66,0,0,0-10.49,17.89c-6.46,15-10.61,30.75-11.15,47.12,0,.49.78.62.87.12Z"/><path class="cls-7" d="M405,211.68l8.14-16.31a145.34,145.34,0,0,1,14.45-24c3.17-4.12,6-5.92,14-11.64"/><path class="cls-7" d="M405.37,211.91c6.41-10,10.89-21.19,17.29-31.26,2.57-4.05,5.26-8.26,8.75-11.59s7.39-5.57,11-8.47c1-.84-.32-2.57-1.44-1.86a59.54,59.54,0,0,0-19.49,19.21,182.3,182.3,0,0,0-16.92,33.63c-.19.49.55.75.81.34Z"/><path class="cls-7" d="M427.4,221.22C439.31,206,440.47,201,462.17,180.49"/><path class="cls-7" d="M427.75,221.57c5.79-4.65,9.67-12.07,14.24-17.86,6.37-8.09,14.07-14.87,20.74-22.66.53-.63-.2-1.81-1-1.23C453.7,186,446.52,194,440.24,202c-4.58,5.83-10.19,12.27-13.27,19a.5.5,0,0,0,.78.6Z"/><path class="cls-5" d="M128.16,572c4.7,8.68,16.9,10.2,26.31,7.23S172,570,181.31,566.77c7.09-2.49,14.78-3.23,21.59-6.4,4.77-2.22,9.17-5.64,14.39-6.2a22.08,22.08,0,0,1,9.67,1.62,52.56,52.56,0,0,1,24.41,18.39l.15.18c7.45,34.61,35.15,61.8,44.65,95.9,1.67,6,2.73,12.52.58,18.36s-8.5,10.53-14.51,8.88a19.57,19.57,0,0,1-6.36-3.65c-6.25-4.72-12.72-9.72-16.06-16.8-2.83-6-3.87-13.89-9.91-16.63-3.61,3-2.32,8.7-1,13.22a97.39,97.39,0,0,1,2.84,39.57c-1.18,8.72-3.67,17.52-9.1,24.45-3.45,4.42-9.17,8.15-14.42,6.2-4.88-1.83-6.9-7.58-7.79-12.71-3.86-22.16,1.9-45-1-67.33a5.39,5.39,0,0,0-.53-2c-.95-1.67-3.44-1.85-5.09-.88s-.56-5.85-1.5-4.18c-4.72,8.42-6.49,1.92-13.39,19.14l-4.27,15.14-4.84,31.6c-.77,5.05-1.63,10.31-4.61,14.46A16.3,16.3,0,0,1,157,734c-1.68-3.92-1.76-8.32-1.74-12.58,0-13.15.73-26.3,2-39.38a97.66,97.66,0,0,1-34.54,43.6,12.86,12.86,0,0,1-5.81,2.67A11.94,11.94,0,0,1,111,727c-5.36-2.38-10.49-6.23-12.36-11.78-3.13-9.28,3.68-18.62,9.13-26.75a119.85,119.85,0,0,0,16.81-38.3Q115,665.92,104.42,681c-6.75,9.6-13.93,19.13-23.35,26.13-2.31,1.71-5.06,3.33-7.89,2.8a9.17,9.17,0,0,1-4.46-2.61,21.65,21.65,0,0,1,4-34.32c-4.16,2-7.62,5.16-11.43,7.76s-8.29,4.71-12.87,4.14-8.9-4.74-8.2-9.3c.5-3.25,3.2-5.63,5.68-7.79,12.68-11,24-23.56,35.19-36.06L113.24,596,98.41,618.37a175.51,175.51,0,0,1-13.13,18.09,87.4,87.4,0,0,1-32.8,23.59c-2.81,1.15-5.82,2.18-8.85,1.84-6.83-.75-11.11-8.11-11.8-15-1.3-12.8,5.92-25,14.83-34.33S66.36,595.94,75,586.34c4.33-4.84,8.86-10.65,15.33-11.16,3.25-.25,6.41.93,9.58,1.66a35.55,35.55,0,0,0,35-12.24"/><path class="cls-8" d="M128,572.05c10.17,17,32.06,5.21,44.65-1.22,10.62-5.42,22.69-6.16,33.17-11.71,5.94-3.15,10.91-5.82,17.9-4.1a47.73,47.73,0,0,1,17.85,9.27c3.43,2.76,8.25,6.71,9.82,10.87,2,5.14,2.94,10.63,5,15.78A212.32,212.32,0,0,0,270,617.81c5.32,9.2,10.91,18.27,15.78,27.73,5.21,10.12,10.71,21.61,11.73,33.11.74,8.42-4.27,21.44-15.22,18.56-5.79-1.52-11.79-7.49-15.9-11.64-4.78-4.82-6.83-10.1-9.27-16.26-1.53-3.84-3.34-7.15-7.08-9.16a.3.3,0,0,0-.38.05c-4.17,4.24-1.95,10.25-.64,15.28a98.06,98.06,0,0,1,3.13,28.69c-.4,10-2,20.51-7.09,29.24-2.51,4.33-6.16,8.85-11.2,10.24-7.13,2-11.09-4.09-12.61-10-4.86-18.92-.25-39.42-.71-58.64-.07-3.31,1.15-13.31-3.32-14.81-2.77-.94-3.59,1.84-4.13-2-.1-.63.18-1.58-.44-2a.35.35,0,0,0-.42,0,61.44,61.44,0,0,1-6.5,6.89c-3.46,3.21-5.7,8.29-7.19,12.67a156.94,156.94,0,0,0-6.09,27c-1.37,9-2,18.58-4.51,27.32-3,10.48-14.23,17.25-24.31,11-9.54-5.89-8.17-17.9-7.95-27.59.24-10.52.92-21,1.95-31.49.05-.45-.59-.45-.73-.1a98.79,98.79,0,0,1-19.82,30.84,87,87,0,0,1-14.56,12.53c-7.15,4.77-15.62.76-20.7-5.38-10-12,3.37-26.13,9.54-36.46A122.79,122.79,0,0,0,125,650.31a.4.4,0,0,0-.73-.31c-10,16.39-20.4,33.75-33.57,47.87-3.31,3.55-7,7.39-11.24,9.89-6.53,3.89-12-1-14.84-6.84-4.86-10.1-1-21.68,8.3-27.57a.42.42,0,0,0-.42-.72c-6.06,3.17-10.94,8.71-17.48,11-4.2,1.45-9.19,1.38-12.39-2.17-4.58-5.08-.27-9.92,3.56-13.33A387.87,387.87,0,0,0,75.1,639c9.43-10.38,18.77-20.84,28.15-31.26l6.44-7.16c1-1.06,2.54-2.14,2.11-3.22.18.44-2.28,3.44-2.65,4Q103.07,610.52,97,619.7c-7.75,11.65-16.09,22.43-27.63,30.56a87,87,0,0,1-14.12,8.1c-4.59,2.09-10,4.54-15,2.07-3.35-1.68-5.59-5.07-6.85-8.5-4.73-12.9,3-27.14,11.35-36.63s18.69-16.56,27.46-25.45c4.54-4.6,9-11.78,15.49-13.72,6.2-1.84,12.9,1.93,19.28,2a36.32,36.32,0,0,0,28.1-13.22c.33-.4-.24-1-.57-.57a35.79,35.79,0,0,1-25.37,12.84c-7.56.43-15.77-4.5-23-1.37S74.05,587,68.48,592.27c-7.44,7-15.68,13.14-22.68,20.6-9.75,10.39-19.62,27.54-12.12,41.83,8.45,16.12,29,1.85,38.77-5.6,17.9-13.65,29-34.47,41.17-52.92.27-.41-.36-.9-.69-.53C96.39,614,80.19,632.85,63,650.69c-3.88,4-7.84,8-11.94,11.81-3.36,3.13-8.18,6.14-10.38,10.29-3,5.7,1.64,11.66,7.55,12.5,3.86.55,7.69-.91,11-2.79A69.17,69.17,0,0,0,65.66,678c1.16-.86,2.31-1.73,3.51-2.52.71-.47,3.35-2.72,1.52-1.7-6.48,3.63-9.68,13-9,19.95.6,5.94,4.63,15.29,11.34,16.55,7.47,1.4,16.26-9.59,20.42-14.37,7.23-8.31,13.38-17.6,19.47-26.76,3.35-5,7.17-10.1,9.94-15.49,1.8-3.49.48-.35-.05,1.47q-1.45,5.05-3.36,10c-4.26,11-10.6,20.22-16.67,30.2-4.13,6.79-7.65,15.17-3.31,22.75,3.13,5.46,11.71,11.85,18.32,10.47,3.89-.81,7.32-4,10.34-6.46A96.42,96.42,0,0,0,139.83,711a97.79,97.79,0,0,0,15.88-24.26c-.11.23,1.35-2.92,1.29-3-.33-.21-.37,1.19-.37,1.27-.24,3-.52,5.89-.73,8.84q-.71,9.84-.93,19.7c-.2,8.71-1.49,19.33,5.43,26A16.66,16.66,0,0,0,180,742.12c7.87-4.36,9.16-13.24,10.41-21.34C192,710.63,192.79,700,195.3,690c1.18-4.65,2.41-9.43,3.94-14,1.29-3.82,3.38-8.51,6.16-11.55,1.21-1.31,2.74-2.17,4-3.36a16,16,0,0,0,1.69-1.89c.86-1.06.73-1.92,1.3-1s.17,2.18.9,3.15c0,0,.15,0,.18,0l.39-.09q5.34-.79,5.21,3c.94,2.49.62,6.17.73,8.85.24,6.26,0,12.52-.32,18.76-.59,11.83-1.51,23.75,0,35.55.78,6.14,2.25,15,9.31,16.93,7.9,2.16,14.44-6,17.62-12.07,4.49-8.58,6-18.56,6.38-28.14.45-10.95-1.32-21.31-4-31.87-.61-2.44-1.79-6.32-.58-8.82,2.46-5.07,5.73.69,7,3,2.19,4.1,3.06,8.75,5.43,12.78a39.92,39.92,0,0,0,8.82,9.92c3.32,2.84,7.16,6.43,11.24,8.09,6.29,2.58,12.87-1.45,15.72-7.17,4-8,.85-18.07-1.88-26a165.28,165.28,0,0,0-12.42-26.59C272,619.43,259.88,602,253.75,581.92c-1-3.2-1.3-6.38-3.13-9.15-2.51-3.79-6.36-7.1-10-9.8-6.4-4.82-15.86-10.22-24.19-8.89-4.51.71-8.25,3.4-12.25,5.4-5.72,2.85-11.86,4-18,5.59-10.83,2.88-19.72,9.64-30.17,13.38-9.45,3.38-22,2.93-27.76-6.57a.17.17,0,0,0-.29.17Z"/><path class="cls-5" d="M175.94,441.27c53.66-26.69,112-29.75,165.86-55.94,18.75-1.21,41.1-6.85,59.28-2.11s35.56,16.53,42.1,34.14a61.78,61.78,0,0,0-30.24,8.51c-2.43,1.43-4.88,3.17-6,5.77-.93,2.23-.73,4.75-1,7.16-.83,8.46-7.31,15.49-14.8,19.52S375.21,464,367,466c-34.23,8.31-67,24.56-91.8,49.57-9.38,9.46-17.73,20.24-29,27.41-22.84,14.57-53,11.58-77.37,23.48-7.88,3.84-15.11,9.24-23.59,11.45-11.89,3.09-24.38-.5-36.13-4.07-3.3-1-6.76-2.1-9.16-4.57-3.06-3.16-3.77-7.9-3.71-12.29.22-15.92,8.39-30.56,17-43.94,9.41-14.61,19.6-28.68,29.8-42.75,10.85-15,22.3-27.58,40.55-30.61"/><path class="cls-5" d="M176.15,441.62c35.48-17.05,73.78-24.82,111.39-35.53,9.24-2.63,18.38-5.66,27.41-9,8.62-3.15,16.9-7.36,25.53-10.4,4.24-1.5,9.34-1.23,13.79-1.74,4.92-.55,9.83-1.23,14.76-1.74,9.46-1,19.22-1.62,28.63.2C416.57,387.1,435,399.23,442,417.69l1.21-1.59a65.76,65.76,0,0,0-25.45,5.76c-6.19,2.79-12.25,6-13,13.29-1.09,10.53-6.22,17.8-15.86,22.52-8.5,4.16-18.08,5.53-27.15,7.94-33.51,8.87-65.27,25.48-89.48,50.55-6.37,6.6-12.32,13.64-19.28,19.65a69.46,69.46,0,0,1-24.34,13.5c-16.29,5.25-33.64,6.1-49.92,11.41-8.22,2.68-15.41,7-23,11.08a44.54,44.54,0,0,1-31,4.68c-8.92-1.69-24.29-3.59-26.74-14-2.25-9.54,1.5-20.75,5.38-29.37,9.06-20.1,23.38-38.17,36.18-56,11.52-16,23.62-32.76,44.28-36.55,1.24-.23.71-2.12-.53-1.9-16.22,2.93-27.89,13.38-37.7,26.05a608.52,608.52,0,0,0-36.25,52c-5,8.09-9.58,16.58-12.22,25.76-2.09,7.25-3.86,16.62-.7,23.84,3.24,7.42,12.4,9,19.4,10.94,9,2.53,18.63,4.39,28,2.51,9.17-1.85,16.81-7.46,25-11.56,8.71-4.34,18.23-6.73,27.72-8.68,17.11-3.52,35.27-5.71,50.38-15.16,16.07-10.05,27-26.75,41.53-38.71A186.75,186.75,0,0,1,339,476.5,233.29,233.29,0,0,1,369.87,467c9.58-2.27,19.72-4.47,27.57-10.8A28.7,28.7,0,0,0,405.62,446c2-4.23,1.26-8.25,2.36-12.58,1.58-6.22,11.15-9.54,16.51-11.43a62.59,62.59,0,0,1,18.69-3.37c.73,0,1.53-.79,1.21-1.59-5.95-14.7-18.61-25.34-33-31.36-17.69-7.38-36-5.17-54.5-2.81-4.48.57-9,1.1-13.43,1.62-4.2.48-8.09,3.3-11.93,5a271.75,271.75,0,0,1-31.4,11.38c-19.74,6-39.77,11-59.65,16.54-22.14,6.17-44.13,13.14-64.71,23.51-.47.24,0,.94.42.71Z"/><path class="cls-9" d="M144.07,608.31c2.47-2.74,3.67-6.35,5.19-9.71s1.35-3.55,4.75-5,10.49-3,11.06.67c.4,2.59,4.12,4.53,5.17,6.93.81,1.86-2.37,3.52-.35,3.3a14.46,14.46,0,0,0,5.58-2.29c-.65-2.15-1.3-4.41-.92-6.63s2.11-4.39,4.37-4.45a7,7,0,0,1,2.84.72A49.63,49.63,0,0,1,198,603.15a3.12,3.12,0,0,0,1,.81c1.54.57,2.71-1.66,2.35-3.26s-1.42-3.12-1.15-4.74c.54-3.14,5-3.31,8.08-2.66l9.81,2a12.65,12.65,0,0,1,5,1.82c2.93,2.16,3.39,6.28,3.75,9.9A134.61,134.61,0,0,0,237,646.31a200.15,200.15,0,0,0-4.88-35c-1.21-5.2-2.48-11.17.66-15.49,2.55-3.5,7.19-4.68,11.49-5.23s9.18-.68,13.12,1.45c4.1,2.21,6.67,6.55,7.95,11s1.45,9.18,1.91,13.82a106.86,106.86,0,0,0,9.65,34.8c1,2.14,2.12,4.39,1.87,6.74a9.52,9.52,0,0,1-3.13,5.54,20.86,20.86,0,0,1-13.76,5.88,6.78,6.78,0,0,1-3.8-.75c-3.74-2.3-2.31-9.3-6.33-11-3.19-1.38-6.51,2.26-6.92,5.72-.72,6.05,3.31,12.6.46,18-1.6,3-4.92,4.65-8,6.07-4,1.86-5.17,3.93-9.2,5.78-1.36.63-4.17,1.69-5.61,1.31-1.86-.48-1.75-1-1.8-2.88s-.34-5.56.29-7.37c1.38-4-1-8.07-1-12.29,0-4.61,2.09-12.24-2.32-14a11.87,11.87,0,0,0-4.62-1c-7.36-.66-9.11,9.84-9.07,8.89.16-4.9,1.07-5.7,1.48-7.29-5.62-19.13-9.87-36.48-5.45-55.92-.67,19.57-2.62,36.42,4.27,56.09,2,5.69-6.65,25.85-12.26,28.05-2.65,1-5.61.64-8.42.22l-22.9-3.38a117,117,0,0,1,14.67-72.6l.94-.05c-2.71,19.07-12.93,36.13-22.94,52.59-1,1.67-2.31,3.53-4.26,3.7-2.54.22-4.23-2.48-6.35-3.9-2.66-1.78-6.19-1.56-9.1-2.9-4.41-2-6.52-7.35-6.24-12.2s2.47-9.35,4.62-13.7l14-28.48c.29,4.38-2,8.47-4.27,12.22q-6.58,10.77-14.16,20.89c-1.11,1.49-2.58,3.13-4.44,3s-3-2.19-3.72-4c-3.27-8.57-8.48-10.53-1.28-16.22,3.58-2.82,7.31-8.69,8.87-15.33.7-3,4.9-3.49,5.53-5.17,1.91-5.14,3.78,4,9.24,4.51"/><path class="cls-10" d="M144.1,608.33c2.39-2.9,3.73-6.26,5.29-9.65s4-4.91,7.77-5.82c4.49-1.09,6.31.17,8.73,3.72a21.87,21.87,0,0,0,1.8,1.93,4.78,4.78,0,0,1,1.67,5c-.33-.56-.39,1.06-.39,1a.31.31,0,0,0,.3.3c2.28.15,4.46-1.19,6.36-2.27a.34.34,0,0,0,.15-.36c-.41-1.44-1.19-3.41-1-4.88,1-8.37,5.74-5.63,9.07-4a45.62,45.62,0,0,1,6.44,3.78,58.67,58.67,0,0,1,6.32,5.23c.39.36,1.64,2,2.43,2.1,1.49.18,2.27-.64,2.69-2s-.44-2.1-.42-3.3c.1-5.83,3.34-5.94,7.76-5.12,4.88.9,12.19,1.29,15.5,5.44,2.77,3.47,2.2,10.87,2.88,15.18a138.83,138.83,0,0,0,9.18,31.9c.16.36.78.37.76-.1-.39-6.85-1.06-13.67-2.11-20.45-1.16-7.54-4.31-15.68-4.11-23.32.25-9.71,10.1-12.1,18.16-12,11.44.21,15.75,9.37,16.92,19.37,1.58,13.44,3.41,26.07,8.83,38.65,2.51,5.82,4.93,11.24-.83,16.17-3.2,2.73-8.06,5-12.37,4.78-8.44-.37-4.27-7.64-9.06-11.22-2.35-1.76-5.06-.58-6.71,1.52-2.7,3.42-1.57,7.86-.91,11.75,1,5.6,1.31,10.36-4.17,13.9-2.6,1.67-5.47,2.71-8,4.5-2.14,1.51-5.65,4.72-8.47,4.46-5.4-.49-3.51-7.22-3.06-10.41.7-5-1.4-9.84-1-14.93.26-3.29,1.18-8.09-1.8-10.5-5.18-4.2-11.75-.58-14.05,4.6-.39.88-.65,1.81-1,2.72.27-.78,1-3.44,1.42-5.13.56-2,.72-1.47.07-3.74-1.2-4.21-2.39-8.42-3.4-12.68a110.48,110.48,0,0,1-3.3-23,77.79,77.79,0,0,1,.32-9,42.46,42.46,0,0,1,1.08-7.29,37.84,37.84,0,0,0-.59,5.25c-.57,13.36-1.08,26.8,2,39.93,1.34,5.79,3.62,10.14,2.15,16.07a52,52,0,0,1-6.2,14.7,17.83,17.83,0,0,1-3.35,4.44c-3.55,3-7.91,2-12.14,1.39-3.82-.53-7.63-1.12-11.45-1.69a41.94,41.94,0,0,1-5.72-.84c-3.47-1-3.82-1.81-4.1-5.35a117.13,117.13,0,0,1,11.94-61.27c.69-1.36,1.4-3.39,2.41-4.54,2.09-2.37.79,0,.5,1.61a83.37,83.37,0,0,1-3.17,11.74,135,135,0,0,1-9.36,20.6c-1.4,2.59-2.86,5.14-4.35,7.67-1.8,3.07-3.55,7.56-6.07,10.06-5.19,5.14-7-.33-10.95-2.12-4.58-2.06-9.23-1.27-12.06-6.44-4.76-8.67,1.79-18.73,5.6-26.41Q138,623.64,141,617.4l2.63-5.34c.58-1.19,1.16-2.37,1.75-3.56a6.14,6.14,0,0,1-.42,2.74c-1.94,7.4-8.16,14.69-12.49,20.91q-1.55,2.22-3.14,4.4c-1,1.34-2,2.66-3,4q-6.31,1.71-7.25-3.44c-1-2.25-2.5-4.31-3.47-6.58-2-4.75,1.63-6.51,4.48-9.5a27.69,27.69,0,0,0,4.22-6c1.47-2.77,1.88-7.26,3.94-9.48a29.54,29.54,0,0,1,4.52-3.41c1-.57,1.1-1,2.46-.06.85.58,1.43,1.85,2.21,2.56a7.83,7.83,0,0,0,4.14,2.2c.5.09.71-.66.21-.75-3-.55-4.13-2.58-6-4.55-.47-.49-1-1.44-1.83-1.5s-.59.27-1.14.46a26.19,26.19,0,0,0-2.38,2.72c-.59.43-1.3.69-1.87,1.14-1.86,1.48-1.94,2.83-2.67,5.11a28.79,28.79,0,0,1-6.29,11.08c-2.23,2.32-5.8,4.15-5.47,7.85.14,1.55,1.15,3,1.88,4.34,1.42,2.59,2.33,5.85,4.07,8.23,2,2.79,4.52,2.3,6.78.11,4.87-4.72,8.61-11.82,12.25-17.5,3.35-5.25,7.16-10.53,7.19-17a.37.37,0,0,0-.68-.18c-3.66,7.41-7.34,14.81-11,22.23-2.82,5.77-6.59,11.82-7.52,18.28-.6,4.18.16,8.76,3.05,12a10.79,10.79,0,0,0,4.76,3c1.52.51,3.21.53,4.71,1.1,2.29.88,3.83,2.34,5.74,3.72,2.45,1.76,4.59,1.89,6.75-.39,4-4.2,6.69-10.67,9.52-15.68,6.91-12.24,12.75-25.05,14.91-39a.4.4,0,0,0-.38-.5c-1.62.08-1.09,0-2.13,1.73A84.65,84.65,0,0,0,169.5,622a116.06,116.06,0,0,0-6.68,19.51,119.61,119.61,0,0,0-2.55,42.61.38.38,0,0,0,.25.33c7,1,14,2.08,21,3.1,3.71.54,8.26,1.66,11.64-.56,5.34-3.5,8.34-12,10.16-17.82.86-2.73,1.8-5.88,1.47-8.8-.62-5.46-3.19-10.89-4.06-16.41-2.11-13.52-.94-27.23-.45-40.82a.35.35,0,0,0-.69-.1,87.2,87.2,0,0,0,.13,35.36c1.25,6.4,3.39,12.56,4.79,18.9.7,3.17-1.43,6-.94,9.2.06.39.56.28.67,0a26.58,26.58,0,0,1,2.16-5c3.26-4.89,12.51-5.37,13.57,1.79.53,3.55-.71,7.19-.34,10.78.21,2.1.95,4.11,1.14,6.22.24,2.56-.51,4.92-.6,7.46-.2,5.49,0,9.22,6.44,7,3.52-1.23,6.1-3.79,9.27-5.64,3.51-2,7.68-3.2,9.74-7,1.39-2.57,1.17-5.5.73-8.28s-1.33-5.57-1.24-8.38l.18-1.36q.06-5.33,8.22-3.79c.71.92,1,2.7,1.35,3.83,1.79,6,5.64,7.11,11.65,5.54,5.59-1.46,13.39-6.21,12.58-12.93-.62-5.13-4.25-10.21-6-15.06a107.34,107.34,0,0,1-4.23-15.75c-1.73-9.24-.58-20.41-5.82-28.64-4.25-6.69-11.45-7.83-18.86-6.86-6.56.85-12.86,3.49-13.68,10.8-.4,3.47.49,7,1.23,10.34,1.46,6.64,2.71,13.3,3.55,20,.31,2.46.57,4.92.79,7.4.11,1.22.15,2.48.29,3.7.4,3.61.32,1.67-.08,1-2.9-4.49-4.13-11.56-5.44-16.68a134.61,134.61,0,0,1-3.09-16.28c-.47-3.74-.32-8.48-2.46-11.79-1.67-2.57-4.18-3.31-7-4-3.91-.9-8.12-2.18-12.14-2.34-1.76-.07-4,.09-5.34,1.49a3.53,3.53,0,0,0-.93,1.88c-.65,3.64.45.21.39,2.48q1.17,2.44-1.94,4.43l-1.18-1.18c-1.76-.84-3.47-3.12-5.13-4.35a49.6,49.6,0,0,0-7.81-4.72c-2.5-1.22-5.38-2.79-7.89-.77-3.21,2.57-1.34,5.59-1.62,8.84a3.28,3.28,0,0,1-3.41,3.24c-3.32-.24-.72.15-.94-.89-.12-.57.33-1.21.14-2-.39-1.58-2.37-2.75-3.34-3.92-.23-.26-1.63-3.76-2.67-4.46-1.85-1.24-4.18-1-6.27-.57-2.32.44-5.73,1.31-7.41,3.13-3.17,3.44-3.76,9.24-6.74,13,0,0,0,.09,0,.05Z"/><path class="cls-11" d="M189.57,495.31c5.12-1.41,10.09-3.63,15.52-3.31,6.34.38,10.21,4.25,13.72,9.07,7.82,10.74-8.11,16.86-8.88,27.21-.13,1.66,2.55,1.68,2.6,0,.24-7.63,8.21-11.38,10.12-18.39,1.25-4.6-1.1-8-3.87-11.44-3.1-3.88-6.33-6.9-11.39-7.8-6.21-1.09-12.68,1-18.16,3.84-.46.23-.14.95.34.82Z"/><path class="cls-11" d="M218.41,500.53c-6.16-.26-10.83,3.26-14.4,8-1.67,2.21-7.61,9.08-2.86,11,1.26.51,2.08-1.54.92-2.19-1.39-.77,4.88-9.43,5.64-10.29,2.75-3.16,6.45-5.55,10.7-5.77a.39.39,0,0,0,0-.77Z"/><path class="cls-11" d="M215.76,498.29a56.66,56.66,0,0,0-15.51,1.64c-4,1-9.22,2.22-12.45,5a1.29,1.29,0,0,0-.34,1.28l.22.73a1.07,1.07,0,0,0,2,0c1.07-2.73,10.3-4.75,12.83-5.45a86.21,86.21,0,0,1,13.21-2.61.28.28,0,0,0,0-.56Z"/><path class="cls-12" d="M386.15,466c-6.6.37-14.39.8-19.84,2-19.09,4.27-38.75,8.78-54.64,20.18a147.6,147.6,0,0,0-13.53,11.48l-25.93,23.88c-6.65,6.12-41.35,31.46-39.9,32,32-9.95,63.86-43.82,90-55.25,17.49-7.66,18.19-8.5,27.8-11.6A210.68,210.68,0,0,1,379,481.9c-.1-.14,2.19-7.29,7.4-15.72"/><path class="cls-11" d="M430.89,462.37c.45.25-27.34,13.13-39.52-.56,11.29-4.56,16.42-23.22,16.42-23.22A61.69,61.69,0,0,0,430.89,462.37Z"/><path class="cls-13" d="M430.77,462.34c-.38,1.29-6.32,2.57-7.56,3a52.06,52.06,0,0,1-15.7,2.54c-1.87,0-17-2.3-15-6.2.55-1,4.39-3,5.42-4.09a32.4,32.4,0,0,0,4.22-5.52,53.88,53.88,0,0,0,5.11-10.83c.13-.37.45-2.26.8-2.46-.76.44-.13.91.42,1.85a61.45,61.45,0,0,0,22.23,22.06.31.31,0,0,0,.31-.54c-9.4-5.49-18.05-13.82-23-23.67a.33.33,0,0,0-.6.08c-2.46,8.81-7.54,19.12-16.25,23a.32.32,0,0,0-.07.49c6.46,6.76,16.09,7.15,24.78,5.52A60.08,60.08,0,0,0,427.81,464c.7-.29,3-.86,3.21-1.61A.13.13,0,0,0,430.77,462.34Z"/><path class="cls-5" d="M403.23,406.78a5.7,5.7,0,0,0,4.24,10.35c3.69-.73,5.72-5.72,3.6-8.83s-7.49-3.05-9.55.1"/><path class="cls-13" d="M403.17,406.67a5.9,5.9,0,0,0-1,9.06,5.77,5.77,0,0,0,8.72-.51c2-2.61,1.82-6.57-1-8.5-2.64-1.79-6.83-1.22-8.58,1.53-.18.28.24.62.46.36a5.92,5.92,0,0,1,7-1.81c2.92,1.25,3.62,4.68,2.15,7.32a5.17,5.17,0,0,1-7.54,1.85c-3.31-2.18-2.94-6.77,0-9.11.11-.08,0-.27-.14-.19Z"/><path class="cls-5" d="M170.78,440.8a243.64,243.64,0,0,0-41.48-42.63c-8-6.43-16.42-12.34-24.82-18.25-6.82-4.8-15-9.84-23-7.37-3.25,1-6.22,3.5-7,6.81a13.34,13.34,0,0,0,.2,5.62c4.07,19.87,21,34.52,38.62,44.6s37,17.37,52.45,30.56c-32.68-6.85-57.34-35.29-89.74-43.39-6.12-1.53-12.62-2.29-18.7-.61-10.06,2.78-17.54,12.31-19.1,22.63-.66,4.44-.08,9.59,3.45,12.37a16.25,16.25,0,0,0,6.4,2.56l106.32,25.71-46.85-10.15L70,461.11c-6.2-1.35-12.53-2.7-18.84-2-5.56.58-10.85,2.7-15.83,5.23-10.49,5.31-21,14.31-21,26.07,0,3.28,1.06,6.84,3.82,8.62a11.8,11.8,0,0,0,5,1.5c13.39,1.62,26.69-2.82,40.09-4.35,29.23-3.34,58.58,7.27,87.91,5A196.62,196.62,0,0,0,30.54,528.55C25,531.9,19,536.92,19.86,543.31c.52,3.88,3.67,7,7.3,8.51s7.67,1.53,11.57,1.22c11.05-.87,21.7-4.37,32.23-7.85L141.07,522c-42,9.82-84.77,23.15-117.53,51.26-3.09,2.66-6.15,5.53-8,9.18s-2.15,8.29.12,11.68,6.82,4.89,11,5.25c9.68.85,19.23-2.44,28.1-6.4C74.44,584.2,92.3,572,110,559.81l24-16.47c4.07-2.79,8.19-5.62,11.39-9.39,4.41-5.18,6.76-11.76,8.86-18.23a419.58,419.58,0,0,0,17.14-76.22Z"/><path class="cls-8" d="M170.92,440.72c-18.06-24-40.23-42.84-64.69-60-7.68-5.39-22.25-15-30.32-4.76-3.24,4.12-1.54,9.66,0,14.17a53.52,53.52,0,0,0,8,15.16c16.16,21.68,42.75,30.4,65.22,43.59,2.9,1.7,5.76,3.48,8.53,5.4,1.47,1,5.61,3.15,6,4.47-.33-1.1.81.74.75.76-.6.19-2.35-.59-3-.76a99.08,99.08,0,0,1-19.06-7.57c-11.76-6-22.62-13.57-33.94-20.33-17.84-10.64-48.7-27-64.9-5.34-4.67,6.24-9.42,19-2.51,25.4,4.24,3.95,12.29,4.36,17.66,5.65l24.16,5.85,49.3,11.92,12.56,3c1.92.46,3.86,1.09,5.8,1.4,3.66.59,1.21-.26-.85-.7-8.14-1.74-16.27-3.53-24.4-5.3q-24.28-5.31-48.58-10.56c-7.41-1.61-15-3.77-22.67-3.63-6.11.11-11.88,2.05-17.34,4.68C27,467.87,16.42,475.51,14.35,486.7c-.76,4.09-.46,9.27,3,12.09,3.77,3,10.42,2.52,14.89,2.31,15.81-.76,30.85-5.68,46.84-5.23s31.78,3.59,47.7,5.11a148.8,148.8,0,0,0,24.34.51.35.35,0,0,0,0-.7,198.3,198.3,0,0,0-107.21,20c-8,4-32.28,14.64-22.29,27.37,4.88,6.22,13.72,5.76,20.75,4.86,9.52-1.22,18.69-4.2,27.77-7.2q35.51-11.71,71-23.49a.32.32,0,0,0-.17-.61c-26,6.13-52,13.39-76.16,24.87a191.42,191.42,0,0,0-34.95,21.12C23,573,11.25,581.09,14.13,591.47c2.83,10.18,17.42,9,25.26,7.27,13.62-3,26.54-10.36,38.42-17.4,12.78-7.58,25-16.09,37.23-24.48l17.63-12.07c5.11-3.51,10.41-6.94,14.2-12,4.18-5.53,6.33-12.3,8.42-18.82q4.07-12.72,7.32-25.69a430.24,430.24,0,0,0,9.23-48.82c0-.38-.54-.51-.71-.19l-.67,1.3c-.23.43.43.82.65.38.82-1.58.58-2.48-.52,2.19-.43,1.82-.54,3.81-.82,5.67q-.86,5.65-1.87,11.29-2.21,12.21-5.12,24.27-2.7,11.13-6,22.1c-2.34,7.78-4.47,16.14-8.73,23.12s-10.89,11.1-17.4,15.56l-20.82,14.28c-12.67,8.69-25.36,17.4-38.79,24.89S40,602.08,24,598.63c-5.19-1.13-9.57-4.4-9.53-10.25,0-4.69,2.78-8.56,5.91-11.77,5.31-5.41,11.71-10,18-14.24,23.63-16.13,50.82-26.29,78.25-33.88,6.52-1.8,13.08-3.45,19.66-5,1-.24,3.42-.14,2.85-1.14-.07-.13-5.28,1.74-5.68,1.87l-13.27,4.39L72.77,544.24c-7.07,2.34-14.14,4.74-21.4,6.43-8.18,1.9-20.69,4.88-27.74-1.4-14.69-13.1,18.28-27,26.87-30.92a196.67,196.67,0,0,1,86.89-17.73c3.38.09,7,.75,10.33.56,3-.17,1.48,0-.31-.17s-3.78.11-5.62.1a206.72,206.72,0,0,1-24.34-1.87c-15.51-1.92-31.06-4.63-46.75-4-8.11.32-16,1.88-24,3.3a112.1,112.1,0,0,1-14.47,1.88c-4.51.22-11.4.84-15-2.54-7.38-7,.35-19.59,5.87-24.85a55,55,0,0,1,21.49-12.27c9.75-2.95,19.31-.6,29,1.49L100,467.94c18.12,3.93,36.26,7.79,54.37,11.76a.31.31,0,0,0,.16-.59c-19.64-4.8-39.3-9.5-59-14.25l-29-7-14.49-3.51c-5.71-1.38-11.57-2.3-13.34-8.85-2.23-8.29,3-18.33,9.09-23.69,7.93-7,18.34-7.17,28.16-4.73,15.79,3.91,29.75,12.74,43.37,21.29,14.55,9.13,29.4,18.34,46.38,22.09.28.07.57-.31.31-.53-22.76-19.11-53.37-26-74.75-47A61.63,61.63,0,0,1,78.5,395.49,43,43,0,0,1,75,384.91c-1.66-9.39,6.32-14,14.44-12.3s15.32,7.89,22,12.62c7.42,5.28,14.75,10.69,21.73,16.54a253,253,0,0,1,37.56,39.15C170.78,441.06,171,440.87,170.92,440.72Z"/><path class="cls-9" d="M124.15,394.09c-12,5.09-21.76,18.25-23,31.22a28.59,28.59,0,0,0-22.14,35.41,5.47,5.47,0,0,1,.26,3.11,5.23,5.23,0,0,1-1.38,1.86c-4.32,4.32-8.12,9.45-9.46,15.41s.21,12.85,5,16.63c2.12,1.68,4.83,2.77,6.24,5.08-6.2-.32-11.61,5-13.43,10.91s-.86,12.34.36,18.44c1,5.21,2.45,10.74,6.41,14.29-4.26,3.39-3,10-1.36,15.22l3.66,11.53a4.51,4.51,0,0,0,1.24,2.24c1.16.93,2.87.47,4.26-.05a103.4,103.4,0,0,0,26-14.38c2.1-1.6,4.3-3.57,4.49-6.19a11.19,11.19,0,0,0-1-4.41,39.3,39.3,0,0,1-2.15-13.77c.06-2.57.44-5.31,2.11-7.27a26.65,26.65,0,0,1,3.81-3.11c6.51-5.31,6.57-15,7.29-23.34a5.48,5.48,0,0,1,1.11-3.37c.76-.78,1.9-1.06,2.74-1.75a6.89,6.89,0,0,0,1.86-3.5l4.33-14.42a8.78,8.78,0,0,1,2.16-4.19,11.2,11.2,0,0,1,3.12-1.64,20.43,20.43,0,0,0,11-11.63c1.7-4.66,1.65-9.83,3.56-14.4,2.33-5.56,7.29-9.6,10.09-14.94.58-1.09.79-1,.74-2.22-.05-1.51-2.58-2.89-3.62-4-13.64-14.16-21.23-22.44-34.18-32.63"/><path class="cls-10" d="M124,393.9a40.93,40.93,0,0,0-21.6,24.16c-.53,1.62-.64,3.44-1.23,5-.79,2.15-2.22,2.38-4.31,3.14a28.7,28.7,0,0,0-18.75,22.91c-.7,4.67,1.08,9.62.1,14-.86,3.84-4.71,6.72-6.8,10.15a24.81,24.81,0,0,0-3.52,9.2c-.87,6,1,12.22,5.95,15.89.69.52,5.15,3,4.39,4.16,0,0-3.83,1-4.08,1.14a15.59,15.59,0,0,0-6.35,5.94c-4.42,7.14-2.86,16.31-1.17,24a30.5,30.5,0,0,0,3.42,9.64c.61,1,1.74,2,1.77,3.1s-.86,1.88-1.32,3.05c-2.66,6.7,1.9,15.95,3.95,22.2.69,2.09,1,4.09,3.33,4.66,2.62.64,6.57-1.91,8.89-2.95,7.64-3.42,16.45-7.81,22.39-13.86a7.18,7.18,0,0,0,2.43-6.18c-.6-4.79-2.77-9.07-3-14.05-.16-3.74,0-6.44,2.52-9.47,1.52-1.85,3.18-3,4.76-4.76a18.76,18.76,0,0,0,4.06-7.87,55.12,55.12,0,0,0,1.48-10c.22-2.7.2-5.89,2.17-8,.87-.95,2-1,2.84-2.2,1.95-2.86,2.48-7.41,3.47-10.68.93-3.1,1.63-5.9,3.37-8.67s3.65-3.06,6.3-4.72c8.25-5.15,8.69-13.11,11-21.66,1.39-5.17,4.59-8.83,7.76-13,1.36-1.78,4.44-4.88,4.11-7.4s-4.11-4.58-5.68-6.21c-3.68-3.86-7.35-7.74-11.09-11.55a226,226,0,0,0-21-19.09c-.41-.33-1,.25-.58.58a307.38,307.38,0,0,1,36,34c3.53,3.89-1,7.94-3.58,11.17A36.35,36.35,0,0,0,151,448c-1.48,3.59-1.74,7.49-2.63,11.23a20.83,20.83,0,0,1-9.79,13.65c-2.27,1.3-4.68,1.71-6.21,3.95-2.36,3.46-3,9-4.19,12.94-.9,3-1.66,6.16-4,8.43-.54.52-1.41.67-1.92,1.26-1.69,2-1.29,5.4-1.49,7.77-.39,4.58-.81,9.42-2.84,13.63-1.83,3.79-5.42,5.32-7.9,8.41-4.66,5.81-1.33,14.94,0,21.27,1.09,5.15.19,7.4-3.62,10.37-2.23,1.74-4.59,3.33-7,4.85a104,104,0,0,1-13.92,7.38c-3.84,1.68-8,3.43-10.35-1.63a67.36,67.36,0,0,1-2.39-7.41c-1.8-5.53-4.45-12.68.46-17.39a.29.29,0,0,0,0-.42c-5.54-5.52-7-14.93-7.56-22.43-.66-9.14,3.14-20.52,14-20.7.21,0,.4-.26.26-.45-1.74-2.29-4.13-3.4-6.3-5.22a15.77,15.77,0,0,1-5.35-13.54,24.57,24.57,0,0,1,4.85-12.25c1.62-2.29,5.41-5,6.37-7.67.85-2.36-.87-6-1-8.19a28.31,28.31,0,0,1,22.77-30.21.28.28,0,0,0,.2-.27,39.9,39.9,0,0,1,22.78-31c.25-.11,0-.47-.21-.37Z"/><path class="cls-11" d="M217.22,543.35c4-.39,7.44-1.84,11.2-3,5.76-1.79,10.41-1.09,15.17,2.59,3.25,2.52,7.18,5.79,9.12,9.47,1.77,3.36,1.63,7.36,4.24,10.23.65.72,1.7,0,1.52-.89-2-9.32-6.66-16.56-14.76-21.8-9.46-6.11-17.11.23-26.63,2.35-.58.13-.47,1.12.14,1.06Z"/><path class="cls-11" d="M242.63,544.27c-.94,3.59-1.51,9.19.81,12.37a.7.7,0,0,0,1.28-.54c-.31-1.73-1.18-3.29-1.51-5a16.71,16.71,0,0,1,.19-6.57c.1-.5-.64-.72-.77-.22Z"/><path class="cls-11" d="M237.69,541.51a29.37,29.37,0,0,0-12.44,7c-.68.68.33,1.65,1.05,1a39.06,39.06,0,0,1,11.63-7.14c.54-.2.33-1-.24-.88Z"/><path class="cls-10" d="M98.77,422.21c16.49,11.52,33.42,22,51.87,30.12.2.08.38-.21.17-.3-18.36-8.34-35.11-18.93-52-29.94-.08,0-.15.07-.08.12Z"/><path class="cls-10" d="M78.41,463.87c16.48,4.94,33.23,9.09,50.05,12.7,0,0,0-.05,0-.05-16.8-3.81-33.41-8.22-50-13a.16.16,0,0,0-.09.31Z"/><path class="cls-10" d="M79,501.34a143.6,143.6,0,0,0,47-1.52c.13,0,.07-.22-.06-.2A171.07,171.07,0,0,1,79,501c-.21,0-.26.33,0,.36Z"/><path class="cls-10" d="M70.91,541c13.59-.65,27.29-4.35,39.72-9.76.1,0,0-.21-.07-.17-12.93,5.11-25.89,8-39.65,9.74-.12,0-.13.2,0,.19Z"/><path class="cls-10" d="M243.08,658.62c-2.61-9-5-17.77-6.75-26.94-.05-.26-.43-.14-.39.11a135.51,135.51,0,0,0,7,26.87.07.07,0,0,0,.14,0Z"/><path class="cls-10" d="M200.46,605.51c-1,17.73,6.25,34.17,8.63,51.51a.1.1,0,0,0,.2,0c-2.21-17.35-9.55-33.76-8.71-51.48,0-.07-.12-.07-.12,0Z"/><path class="cls-10" d="M176.79,602.77a206.33,206.33,0,0,1-27.37,55c-.13.19.18.36.31.18A180.83,180.83,0,0,0,177,602.82c0-.12-.15-.17-.19-.05Z"/><path class="cls-10" d="M129,633c13.35-10.21,20.16-26.38,32.77-37.36.14-.12-.06-.31-.2-.2-13,10.61-19.52,26.94-32.71,37.38-.09.08,0,.25.14.18Z"/><path class="cls-10" d="M236.26,608.73c1.77,17,4.2,34.19,8.35,50.82,0,.16.28.09.25-.07-3.35-16.87-6.52-33.63-8.38-50.75,0-.13-.23-.14-.22,0Z"/><path class="cls-10" d="M71.41,541c17.06-3.79,34.17-6,51.5-8,.26,0,.28-.43,0-.42-17.32,1-34.74,4.16-51.58,8.16-.2,0-.11.34.08.3Z"/><path class="cls-10" d="M74.31,503.78c13.75.27,27.67.35,41.42-.24a.17.17,0,0,0,0-.34c-13.76-.37-27.67-.08-41.42.41a.09.09,0,0,0,0,.17Z"/><path class="cls-10" d="M78.73,469.48c18,3.58,36,6.82,54.22,9,.23,0,.29-.37.06-.41-18.15-2.6-36.2-5.47-54.21-8.89-.17,0-.24.22-.07.25Z"/><path class="cls-10" d="M106.57,427.33c-.2-.73-1-1.17-1.59-.4-1.56,2,4.15,6.14,5.37,7,4.8,3.26,10.54,4.85,15.67,7.47a66.72,66.72,0,0,1,17.69,13.49c.2.21.5-.1.31-.31a62.57,62.57,0,0,0-18.44-14c-3.28-1.63-6.73-2.85-10-4.4a35.61,35.61,0,0,1-4.92-2.7,19.23,19.23,0,0,1-3.13-2.56c-1.83-.95-2.21-2.12-1.11-3.5a.1.1,0,0,0,.19-.05Z"/><path class="cls-10" d="M102.1,424.51c9.59,0,16.55,10.21,24.36,14.77s16.48,7.6,25.07,10.1c.18.06.25-.22.08-.28-10-3.58-20.28-6.59-29.05-12.8-6.38-4.52-11.93-12.11-20.46-12a.09.09,0,0,0,0,.17Z"/><path class="cls-14" d="M49.09,458.83a1.75,1.75,0,0,0,.79.17.12.12,0,0,0,0-.23,1.69,1.69,0,0,0-.8-.11c-.08,0-.09.13,0,.17Z"/><path class="cls-8" d="M45.16,460.19c8.67.3,17.08,1.59,25.7,2.22.43,0,.48-.61.1-.74-7.9-2.55-17.62-2.79-25.8-2.06a.29.29,0,0,0,0,.58Z"/><path class="cls-8" d="M126.43,504.1c10.14.82,20.55.7,30.73.6a.66.66,0,0,0,0-1.31c-10.15-.63-20.56-.42-30.73-.13a.42.42,0,0,0,0,.84Z"/><path class="cls-8" d="M138.88,477.48a93.39,93.39,0,0,0,25.49-.32c.39-.06.3-.72-.1-.69a169.45,169.45,0,0,1-25.39.33c-.44,0-.42.63,0,.68Z"/><path class="cls-8" d="M153,452.54a29.92,29.92,0,0,0,15.69,4.28.44.44,0,0,0,0-.87c-5.55-.67-10.3-1.52-15.46-3.81-.26-.12-.5.25-.23.4Z"/><path class="cls-8" d="M36.32,551.31c10.93-2.46,22.77-4,33-8.74.46-.22.13-.91-.33-.79-6.23,1.52-12.3,3.75-18.53,5.33-4.77,1.21-9.53,2.36-14.19,3.92a.14.14,0,0,0,.07.28Z"/><path class="cls-8" d="M112.6,535.33c11.92-1.17,24.24-1.78,35.61-5.88a.38.38,0,0,0-.21-.74c-6.23,1.19-12.28,2.83-18.6,3.59-5.66.68-11.28,1.3-16.9,2.29-.41.08-.32.78.1.74Z"/><path class="cls-8" d="M54.77,598.82c5.81-6.63,15.33-11.58,22.83-16.11,7.88-4.76,16.09-8.73,24.27-12.92.27-.13.08-.61-.2-.49a181,181,0,0,0-25.11,13.39c-7.28,4.5-16.45,9.31-22,15.93-.11.14.08.34.2.2Z"/><path class="cls-8" d="M42.68,666.43c7.45-6.59,14-14.39,21-21.44Q74,634.67,84.53,624.66c14.32-13.56,29.25-26.4,44-39.49.42-.38-.19-1-.62-.62C112.24,597,97.46,610.64,83,624.44q-10.87,10.37-21.41,21.07c-6.53,6.65-13.63,13.2-19.32,20.6-.19.25.21.51.43.32Z"/><path class="cls-8" d="M58.07,688.38a421.66,421.66,0,0,0,54.44-59c.22-.28-.26-.65-.5-.38-9,9.91-17.41,20.31-26.37,30.25s-18.37,19.44-27.75,29a.13.13,0,1,0,.18.18Z"/><path class="cls-8" d="M93.18,696c6.57-8,12-17.12,17.46-25.88,5.83-9.29,11.68-18.6,17.22-28.07.16-.28-.26-.51-.43-.25-5.89,8.92-11.22,18.21-16.86,27.29S98.86,687,93.09,695.94c0,.06,0,.13.09.07Z"/><path class="cls-8" d="M153.2,697.78c1-5.54,1.3-11.2,1.81-16.81.56-6.2,1.44-12.5,1.42-18.73,0-.36-.58-.46-.65-.09-1,5.54-1.2,11.25-1.66,16.85-.5,6.22-1.27,12.49-1.24,18.74a.16.16,0,0,0,.32,0Z"/><path class="cls-8" d="M145.26,606.12c1.09-3.41,1.93-6.82,3.28-10.15s2.84-6.64,3.38-10.19a.34.34,0,0,0-.65-.18c-2.43,6.27-6.5,13.62-6.47,20.46a.23.23,0,0,0,.46.06Z"/><path class="cls-8" d="M172.13,600.58c2.09-7.59,4.36-15.1,6.58-22.66.13-.46-.59-.79-.8-.33-3.18,7.15-4.84,15.21-6.12,22.9,0,.22.28.32.34.09Z"/><path class="cls-8" d="M199.07,597.83c4.05-9.9,4-21.34,4-31.86a.33.33,0,0,0-.66,0c-1,10.77-1.37,21.15-3.74,31.76a.19.19,0,0,0,.36.1Z"/><path class="cls-8" d="M228.81,604.68c0-6-1.67-12-2.92-17.82a118.39,118.39,0,0,1-2.49-20.64c0-.65-1.1-.87-1.2-.16-.82,6,.08,12.12,1.37,18,1.49,6.88,3,13.85,4.78,20.65a.23.23,0,0,0,.46-.06Z"/><path class="cls-11" d="M444.44,421.41c3.87-.09,11.43,23.41-13.85,47a41.88,41.88,0,0,0-22.76-30.63S419.45,422,444.44,421.41Z"/><path class="cls-13" d="M444.44,421.69c2.84.27,3.53,6.75,3.72,8.75a36.19,36.19,0,0,1-2.35,15.61,49.46,49.46,0,0,1-5.15,10.09,61.41,61.41,0,0,1-5.06,6.63c-.71.81-3,4.09-3.85,4.07-1.83,0-1.45-1.82-1.94-3.49a42.19,42.19,0,0,0-6.15-12.55c-3.35-4.65-7.87-9.3-13.05-11.92-2.2-1.12-2.37-.21-1.67-1.82.42-1,1.84-1.95,2.58-2.63,9.21-8.54,20.7-11.59,32.92-12.74a.28.28,0,0,0,0-.56c-13.1-.25-28.85,5.67-36.94,16.51a.38.38,0,0,0,.14.51,42.23,42.23,0,0,1,22.59,30.41.37.37,0,0,0,.62.16c9.41-9,17.43-20.71,18-34.18.12-2.77.08-13-4.42-13.4C444.09,421.11,444.09,421.66,444.44,421.69Z"/><text class="cls-15" transform="translate(1548.91 382.47)">KNOWLEDGE IS POWER<tspan class="cls-16"><tspan x="0" y="111.15">TO BE SHARED</tspan></tspan></text></svg>